<mxfile host="Electron" agent="Mozilla/5.0 (Windows NT 10.0; Win64; x64) AppleWebKit/537.36 (KHTML, like Gecko) draw.io/28.1.2 Chrome/138.0.7204.243 Electron/37.4.0 Safari/537.36" version="28.1.2" pages="4">
  <diagram name="Page-1" id="XZcJlRqIM7Ble-OiMkny">
    <mxGraphModel dx="8608" dy="5152" grid="1" gridSize="10" guides="1" tooltips="1" connect="1" arrows="1" fold="1" page="0" pageScale="1" pageWidth="1169" pageHeight="827" math="0" shadow="0">
      <root>
        <mxCell id="0" />
        <mxCell id="1" parent="0" />
        <mxCell id="zkV6eAk7qHjJs4rU3PGN-4" value="" style="group" vertex="1" connectable="0" parent="1">
          <mxGeometry x="-250" y="-40" width="1090" height="2170" as="geometry" />
        </mxCell>
        <mxCell id="_n4PVJWJV11BKBPUxoQS-2" value="" style="rounded=0;whiteSpace=wrap;html=1;align=center;verticalAlign=middle;fontFamily=Helvetica;fontSize=11;labelBackgroundColor=none;autosize=1;resizable=1;" vertex="1" parent="zkV6eAk7qHjJs4rU3PGN-4">
          <mxGeometry width="1090" height="2170" as="geometry" />
        </mxCell>
        <mxCell id="Rdtr1JbjE306_ljO7pi9-87" value="" style="rounded=0;whiteSpace=wrap;html=1;fontFamily=Helvetica;fontSize=11;fontColor=#333333;labelBackgroundColor=default;fillColor=#B9CAD8;strokeColor=none;" vertex="1" parent="zkV6eAk7qHjJs4rU3PGN-4">
          <mxGeometry x="70" y="1905" width="240" height="190" as="geometry" />
        </mxCell>
        <mxCell id="Rdtr1JbjE306_ljO7pi9-75" value="" style="rounded=0;whiteSpace=wrap;html=1;fontFamily=Helvetica;fontSize=11;fontColor=#333333;labelBackgroundColor=default;fillColor=#B9CAD8;strokeColor=none;" vertex="1" parent="zkV6eAk7qHjJs4rU3PGN-4">
          <mxGeometry x="330" y="1975" width="680" height="120" as="geometry" />
        </mxCell>
        <mxCell id="Rdtr1JbjE306_ljO7pi9-64" value="" style="rounded=0;whiteSpace=wrap;html=1;fontFamily=Helvetica;fontSize=11;fontColor=#333333;labelBackgroundColor=default;fillColor=#D8D8D8;strokeColor=none;" vertex="1" parent="zkV6eAk7qHjJs4rU3PGN-4">
          <mxGeometry x="230" y="1640" width="680" height="120" as="geometry" />
        </mxCell>
        <mxCell id="Rdtr1JbjE306_ljO7pi9-39" value="" style="rounded=0;whiteSpace=wrap;html=1;fontFamily=Helvetica;fontSize=11;fontColor=#333333;labelBackgroundColor=default;fillColor=#D8D8D8;strokeColor=none;" vertex="1" parent="zkV6eAk7qHjJs4rU3PGN-4">
          <mxGeometry x="230" y="1360" width="680" height="120" as="geometry" />
        </mxCell>
        <mxCell id="Rdtr1JbjE306_ljO7pi9-32" value="" style="rounded=0;whiteSpace=wrap;html=1;fontFamily=Helvetica;fontSize=11;fontColor=#333333;labelBackgroundColor=default;fillColor=#D8D8D8;strokeColor=none;" vertex="1" parent="zkV6eAk7qHjJs4rU3PGN-4">
          <mxGeometry x="470" y="790" width="370" height="190" as="geometry" />
        </mxCell>
        <mxCell id="Rdtr1JbjE306_ljO7pi9-17" value="" style="rounded=0;whiteSpace=wrap;html=1;fontFamily=Helvetica;fontSize=11;labelBackgroundColor=default;fillColor=#F3EEFC;strokeColor=none;" vertex="1" parent="zkV6eAk7qHjJs4rU3PGN-4">
          <mxGeometry x="460" y="420" width="530" height="86" as="geometry" />
        </mxCell>
        <mxCell id="Rdtr1JbjE306_ljO7pi9-1" value="Internet" style="rounded=1;whiteSpace=wrap;html=1;arcSize=50;fillColor=#e1d5e7;strokeColor=#9673a6;" vertex="1" parent="zkV6eAk7qHjJs4rU3PGN-4">
          <mxGeometry x="570" y="120" width="120" height="40" as="geometry" />
        </mxCell>
        <mxCell id="Rdtr1JbjE306_ljO7pi9-2" value="Remote Access VPN" style="rounded=1;whiteSpace=wrap;html=1;arcSize=50;fillColor=#e1d5e7;strokeColor=#9673a6;" vertex="1" parent="zkV6eAk7qHjJs4rU3PGN-4">
          <mxGeometry x="770" y="120" width="140" height="40" as="geometry" />
        </mxCell>
        <mxCell id="Rdtr1JbjE306_ljO7pi9-13" style="edgeStyle=orthogonalEdgeStyle;rounded=0;orthogonalLoop=1;jettySize=auto;html=1;exitX=0.375;exitY=1;exitDx=0;exitDy=0;entryX=0.5;entryY=0;entryDx=0;entryDy=0;curved=1;" edge="1" parent="zkV6eAk7qHjJs4rU3PGN-4" source="Rdtr1JbjE306_ljO7pi9-3" target="Rdtr1JbjE306_ljO7pi9-9">
          <mxGeometry relative="1" as="geometry" />
        </mxCell>
        <mxCell id="Rdtr1JbjE306_ljO7pi9-16" value="Conduit 3: Enterprise Network" style="edgeLabel;html=1;align=center;verticalAlign=middle;resizable=0;points=[];fontFamily=Helvetica;fontSize=11;fontColor=default;labelBackgroundColor=default;" vertex="1" connectable="0" parent="Rdtr1JbjE306_ljO7pi9-13">
          <mxGeometry x="0.183" y="2" relative="1" as="geometry">
            <mxPoint x="36" y="-25" as="offset" />
          </mxGeometry>
        </mxCell>
        <mxCell id="Rdtr1JbjE306_ljO7pi9-14" style="edgeStyle=orthogonalEdgeStyle;shape=connector;curved=1;rounded=0;orthogonalLoop=1;jettySize=auto;html=1;exitX=0.5;exitY=1;exitDx=0;exitDy=0;entryX=0.5;entryY=0;entryDx=0;entryDy=0;strokeColor=default;align=center;verticalAlign=middle;fontFamily=Helvetica;fontSize=11;fontColor=default;labelBackgroundColor=default;endArrow=classic;" edge="1" parent="zkV6eAk7qHjJs4rU3PGN-4" source="Rdtr1JbjE306_ljO7pi9-3" target="Rdtr1JbjE306_ljO7pi9-11">
          <mxGeometry relative="1" as="geometry" />
        </mxCell>
        <mxCell id="Rdtr1JbjE306_ljO7pi9-15" style="edgeStyle=orthogonalEdgeStyle;shape=connector;curved=1;rounded=0;orthogonalLoop=1;jettySize=auto;html=1;exitX=0.625;exitY=1;exitDx=0;exitDy=0;strokeColor=default;align=center;verticalAlign=middle;fontFamily=Helvetica;fontSize=11;fontColor=default;labelBackgroundColor=default;endArrow=classic;" edge="1" parent="zkV6eAk7qHjJs4rU3PGN-4" source="Rdtr1JbjE306_ljO7pi9-3" target="Rdtr1JbjE306_ljO7pi9-12">
          <mxGeometry relative="1" as="geometry" />
        </mxCell>
        <mxCell id="Rdtr1JbjE306_ljO7pi9-3" value="Enterprise Firewall" style="shape=hexagon;perimeter=hexagonPerimeter2;whiteSpace=wrap;html=1;fixedSize=1;fillColor=#f8cecc;strokeColor=#b85450;" vertex="1" parent="zkV6eAk7qHjJs4rU3PGN-4">
          <mxGeometry x="640" y="260" width="160" height="60" as="geometry" />
        </mxCell>
        <mxCell id="Rdtr1JbjE306_ljO7pi9-4" style="edgeStyle=orthogonalEdgeStyle;rounded=0;orthogonalLoop=1;jettySize=auto;html=1;exitX=0.5;exitY=1;exitDx=0;exitDy=0;entryX=0.31;entryY=-0.018;entryDx=0;entryDy=0;entryPerimeter=0;curved=1;" edge="1" parent="zkV6eAk7qHjJs4rU3PGN-4" source="Rdtr1JbjE306_ljO7pi9-1" target="Rdtr1JbjE306_ljO7pi9-3">
          <mxGeometry relative="1" as="geometry" />
        </mxCell>
        <mxCell id="Rdtr1JbjE306_ljO7pi9-7" value="Conduit 1: Internet Access" style="edgeLabel;html=1;align=center;verticalAlign=middle;resizable=0;points=[];" vertex="1" connectable="0" parent="Rdtr1JbjE306_ljO7pi9-4">
          <mxGeometry x="-0.2373" y="8" relative="1" as="geometry">
            <mxPoint x="-10" y="-12" as="offset" />
          </mxGeometry>
        </mxCell>
        <mxCell id="Rdtr1JbjE306_ljO7pi9-5" style="edgeStyle=orthogonalEdgeStyle;rounded=0;orthogonalLoop=1;jettySize=auto;html=1;exitX=0.5;exitY=1;exitDx=0;exitDy=0;entryX=0.681;entryY=-0.05;entryDx=0;entryDy=0;entryPerimeter=0;curved=1;" edge="1" parent="zkV6eAk7qHjJs4rU3PGN-4" source="Rdtr1JbjE306_ljO7pi9-2" target="Rdtr1JbjE306_ljO7pi9-3">
          <mxGeometry relative="1" as="geometry" />
        </mxCell>
        <mxCell id="Rdtr1JbjE306_ljO7pi9-8" value="Conduit 2:&amp;nbsp;Secure Remove VPN" style="edgeLabel;html=1;align=center;verticalAlign=middle;resizable=0;points=[];" vertex="1" connectable="0" parent="Rdtr1JbjE306_ljO7pi9-5">
          <mxGeometry x="-0.6513" y="-7" relative="1" as="geometry">
            <mxPoint x="2" y="-3" as="offset" />
          </mxGeometry>
        </mxCell>
        <mxCell id="Rdtr1JbjE306_ljO7pi9-9" value="ERP System" style="rounded=0;whiteSpace=wrap;html=1;fillColor=#dae8fc;strokeColor=#6c8ebf;" vertex="1" parent="zkV6eAk7qHjJs4rU3PGN-4">
          <mxGeometry x="480" y="446" width="120" height="40" as="geometry" />
        </mxCell>
        <mxCell id="Rdtr1JbjE306_ljO7pi9-20" style="edgeStyle=orthogonalEdgeStyle;shape=connector;curved=1;rounded=0;orthogonalLoop=1;jettySize=auto;html=1;exitX=0.5;exitY=1;exitDx=0;exitDy=0;entryX=0.5;entryY=0;entryDx=0;entryDy=0;strokeColor=default;align=center;verticalAlign=middle;fontFamily=Helvetica;fontSize=11;fontColor=default;labelBackgroundColor=default;endArrow=classic;" edge="1" parent="zkV6eAk7qHjJs4rU3PGN-4" source="Rdtr1JbjE306_ljO7pi9-11" target="Rdtr1JbjE306_ljO7pi9-19">
          <mxGeometry relative="1" as="geometry" />
        </mxCell>
        <mxCell id="Rdtr1JbjE306_ljO7pi9-11" value="Business Applications" style="rounded=0;whiteSpace=wrap;html=1;fillColor=#dae8fc;strokeColor=#6c8ebf;" vertex="1" parent="zkV6eAk7qHjJs4rU3PGN-4">
          <mxGeometry x="640" y="446" width="160" height="40" as="geometry" />
        </mxCell>
        <mxCell id="Rdtr1JbjE306_ljO7pi9-12" value="Email &amp;amp; Office" style="rounded=0;whiteSpace=wrap;html=1;fillColor=#dae8fc;strokeColor=#6c8ebf;" vertex="1" parent="zkV6eAk7qHjJs4rU3PGN-4">
          <mxGeometry x="840" y="446" width="120" height="40" as="geometry" />
        </mxCell>
        <mxCell id="Rdtr1JbjE306_ljO7pi9-18" value="Enterprise Zone" style="text;html=1;align=center;verticalAlign=middle;resizable=0;points=[];autosize=1;strokeColor=none;fillColor=none;fontFamily=Helvetica;fontSize=11;fontColor=default;labelBackgroundColor=none;" vertex="1" parent="zkV6eAk7qHjJs4rU3PGN-4">
          <mxGeometry x="740" y="416" width="100" height="30" as="geometry" />
        </mxCell>
        <mxCell id="Rdtr1JbjE306_ljO7pi9-25" style="edgeStyle=orthogonalEdgeStyle;shape=connector;curved=1;rounded=0;orthogonalLoop=1;jettySize=auto;html=1;exitX=0.5;exitY=1;exitDx=0;exitDy=0;entryX=0.5;entryY=0;entryDx=0;entryDy=0;strokeColor=default;align=center;verticalAlign=middle;fontFamily=Helvetica;fontSize=11;fontColor=default;labelBackgroundColor=default;endArrow=classic;" edge="1" parent="zkV6eAk7qHjJs4rU3PGN-4" source="Rdtr1JbjE306_ljO7pi9-19" target="Rdtr1JbjE306_ljO7pi9-24">
          <mxGeometry relative="1" as="geometry" />
        </mxCell>
        <mxCell id="Rdtr1JbjE306_ljO7pi9-19" value="Industrial Firewall 1" style="shape=hexagon;perimeter=hexagonPerimeter2;whiteSpace=wrap;html=1;fixedSize=1;fillColor=#f8cecc;strokeColor=#b85450;" vertex="1" parent="zkV6eAk7qHjJs4rU3PGN-4">
          <mxGeometry x="640" y="620" width="160" height="60" as="geometry" />
        </mxCell>
        <mxCell id="Rdtr1JbjE306_ljO7pi9-21" style="edgeStyle=orthogonalEdgeStyle;shape=connector;curved=1;rounded=0;orthogonalLoop=1;jettySize=auto;html=1;exitX=0.5;exitY=1;exitDx=0;exitDy=0;entryX=0.375;entryY=0;entryDx=0;entryDy=0;strokeColor=default;align=center;verticalAlign=middle;fontFamily=Helvetica;fontSize=11;fontColor=default;labelBackgroundColor=default;endArrow=classic;" edge="1" parent="zkV6eAk7qHjJs4rU3PGN-4" source="Rdtr1JbjE306_ljO7pi9-9" target="Rdtr1JbjE306_ljO7pi9-19">
          <mxGeometry relative="1" as="geometry" />
        </mxCell>
        <mxCell id="Rdtr1JbjE306_ljO7pi9-22" value="Conduit 4: Enterprise to DMZ" style="edgeLabel;html=1;align=center;verticalAlign=middle;resizable=0;points=[];fontFamily=Helvetica;fontSize=11;fontColor=default;labelBackgroundColor=default;" vertex="1" connectable="0" parent="Rdtr1JbjE306_ljO7pi9-21">
          <mxGeometry x="-0.3956" y="9" relative="1" as="geometry">
            <mxPoint x="-12" y="-14" as="offset" />
          </mxGeometry>
        </mxCell>
        <mxCell id="Rdtr1JbjE306_ljO7pi9-31" style="edgeStyle=orthogonalEdgeStyle;shape=connector;curved=1;rounded=0;orthogonalLoop=1;jettySize=auto;html=1;exitX=0.5;exitY=1;exitDx=0;exitDy=0;entryX=0.5;entryY=0;entryDx=0;entryDy=0;strokeColor=default;align=center;verticalAlign=middle;fontFamily=Helvetica;fontSize=11;fontColor=default;labelBackgroundColor=default;endArrow=classic;" edge="1" parent="zkV6eAk7qHjJs4rU3PGN-4" source="Rdtr1JbjE306_ljO7pi9-24" target="Rdtr1JbjE306_ljO7pi9-26">
          <mxGeometry relative="1" as="geometry" />
        </mxCell>
        <mxCell id="Rdtr1JbjE306_ljO7pi9-24" value="IDS/IPS" style="rounded=0;whiteSpace=wrap;html=1;fontFamily=Helvetica;fontSize=11;labelBackgroundColor=none;fillColor=#f8cecc;strokeColor=#b85450;" vertex="1" parent="zkV6eAk7qHjJs4rU3PGN-4">
          <mxGeometry x="660" y="720" width="120" height="40" as="geometry" />
        </mxCell>
        <mxCell id="Rdtr1JbjE306_ljO7pi9-29" style="edgeStyle=orthogonalEdgeStyle;shape=connector;curved=1;rounded=0;orthogonalLoop=1;jettySize=auto;html=1;exitX=0.75;exitY=1;exitDx=0;exitDy=0;entryX=0.5;entryY=0;entryDx=0;entryDy=0;strokeColor=default;align=center;verticalAlign=middle;fontFamily=Helvetica;fontSize=11;fontColor=default;labelBackgroundColor=default;endArrow=classic;" edge="1" parent="zkV6eAk7qHjJs4rU3PGN-4" source="Rdtr1JbjE306_ljO7pi9-26" target="Rdtr1JbjE306_ljO7pi9-28">
          <mxGeometry relative="1" as="geometry" />
        </mxCell>
        <mxCell id="Rdtr1JbjE306_ljO7pi9-30" style="edgeStyle=orthogonalEdgeStyle;shape=connector;curved=1;rounded=0;orthogonalLoop=1;jettySize=auto;html=1;exitX=0.25;exitY=1;exitDx=0;exitDy=0;entryX=0.5;entryY=0;entryDx=0;entryDy=0;strokeColor=default;align=center;verticalAlign=middle;fontFamily=Helvetica;fontSize=11;fontColor=default;labelBackgroundColor=default;endArrow=classic;" edge="1" parent="zkV6eAk7qHjJs4rU3PGN-4" source="Rdtr1JbjE306_ljO7pi9-26" target="Rdtr1JbjE306_ljO7pi9-27">
          <mxGeometry relative="1" as="geometry" />
        </mxCell>
        <mxCell id="Rdtr1JbjE306_ljO7pi9-26" value="DMZ Services" style="rounded=0;whiteSpace=wrap;html=1;fontFamily=Helvetica;fontSize=11;labelBackgroundColor=none;fillColor=#fff2cc;strokeColor=#d6b656;" vertex="1" parent="zkV6eAk7qHjJs4rU3PGN-4">
          <mxGeometry x="660" y="820" width="120" height="40" as="geometry" />
        </mxCell>
        <mxCell id="Rdtr1JbjE306_ljO7pi9-36" style="edgeStyle=orthogonalEdgeStyle;shape=connector;curved=1;rounded=0;orthogonalLoop=1;jettySize=auto;html=1;exitX=0.75;exitY=1;exitDx=0;exitDy=0;entryX=0.5;entryY=0;entryDx=0;entryDy=0;strokeColor=default;align=center;verticalAlign=middle;fontFamily=Helvetica;fontSize=11;fontColor=default;labelBackgroundColor=none;autosize=1;resizable=0;endArrow=classic;" edge="1" parent="zkV6eAk7qHjJs4rU3PGN-4" source="Rdtr1JbjE306_ljO7pi9-27" target="Rdtr1JbjE306_ljO7pi9-34">
          <mxGeometry relative="1" as="geometry" />
        </mxCell>
        <mxCell id="Rdtr1JbjE306_ljO7pi9-90" value="Conduit 4: Enterprise to DMZ" style="edgeLabel;html=1;align=center;verticalAlign=middle;resizable=0;points=[];fontFamily=Helvetica;fontSize=11;fontColor=default;labelBackgroundColor=default;autosize=1;fillColor=none;gradientColor=none;" vertex="1" connectable="0" parent="Rdtr1JbjE306_ljO7pi9-36">
          <mxGeometry x="-0.0248" y="1" width="170" height="30" relative="1" as="geometry">
            <mxPoint x="-46" y="-14" as="offset" />
          </mxGeometry>
        </mxCell>
        <mxCell id="Rdtr1JbjE306_ljO7pi9-27" value="Historian" style="rounded=0;whiteSpace=wrap;html=1;fontFamily=Helvetica;fontSize=11;labelBackgroundColor=none;fillColor=#fff2cc;strokeColor=#d6b656;" vertex="1" parent="zkV6eAk7qHjJs4rU3PGN-4">
          <mxGeometry x="500" y="920" width="120" height="40" as="geometry" />
        </mxCell>
        <mxCell id="Rdtr1JbjE306_ljO7pi9-28" value="Application Servers" style="rounded=0;whiteSpace=wrap;html=1;fontFamily=Helvetica;fontSize=11;labelBackgroundColor=none;fillColor=#fff2cc;strokeColor=#d6b656;" vertex="1" parent="zkV6eAk7qHjJs4rU3PGN-4">
          <mxGeometry x="690" y="920" width="120" height="40" as="geometry" />
        </mxCell>
        <mxCell id="Rdtr1JbjE306_ljO7pi9-33" value="DMZ - Demilitarized Zone" style="text;html=1;align=center;verticalAlign=middle;resizable=0;points=[];autosize=1;strokeColor=none;fillColor=none;fontFamily=Helvetica;fontSize=11;fontColor=default;labelBackgroundColor=none;" vertex="1" parent="zkV6eAk7qHjJs4rU3PGN-4">
          <mxGeometry x="485" y="790" width="150" height="30" as="geometry" />
        </mxCell>
        <mxCell id="Rdtr1JbjE306_ljO7pi9-37" style="edgeStyle=orthogonalEdgeStyle;shape=connector;curved=1;rounded=0;orthogonalLoop=1;jettySize=auto;html=1;exitX=0.5;exitY=1;exitDx=0;exitDy=0;strokeColor=default;align=center;verticalAlign=middle;fontFamily=Helvetica;fontSize=11;fontColor=default;labelBackgroundColor=none;autosize=1;resizable=0;endArrow=classic;" edge="1" parent="zkV6eAk7qHjJs4rU3PGN-4" source="Rdtr1JbjE306_ljO7pi9-34" target="Rdtr1JbjE306_ljO7pi9-35">
          <mxGeometry relative="1" as="geometry" />
        </mxCell>
        <mxCell id="Rdtr1JbjE306_ljO7pi9-34" value="Industrial Firewall 2" style="shape=hexagon;perimeter=hexagonPerimeter2;whiteSpace=wrap;html=1;fixedSize=1;fillColor=#f8cecc;strokeColor=#b85450;" vertex="1" parent="zkV6eAk7qHjJs4rU3PGN-4">
          <mxGeometry x="510" y="1050" width="160" height="60" as="geometry" />
        </mxCell>
        <mxCell id="Rdtr1JbjE306_ljO7pi9-52" style="edgeStyle=orthogonalEdgeStyle;shape=connector;curved=1;rounded=0;orthogonalLoop=1;jettySize=auto;html=1;exitX=0.5;exitY=1;exitDx=0;exitDy=0;strokeColor=default;align=center;verticalAlign=middle;fontFamily=Helvetica;fontSize=11;fontColor=default;labelBackgroundColor=none;autosize=1;resizable=0;endArrow=classic;" edge="1" parent="zkV6eAk7qHjJs4rU3PGN-4" source="Rdtr1JbjE306_ljO7pi9-35" target="Rdtr1JbjE306_ljO7pi9-38">
          <mxGeometry relative="1" as="geometry" />
        </mxCell>
        <mxCell id="Rdtr1JbjE306_ljO7pi9-35" value="IDS/IPS" style="rounded=0;whiteSpace=wrap;html=1;fontFamily=Helvetica;fontSize=11;labelBackgroundColor=none;fillColor=#f8cecc;strokeColor=#b85450;" vertex="1" parent="zkV6eAk7qHjJs4rU3PGN-4">
          <mxGeometry x="530" y="1150" width="120" height="40" as="geometry" />
        </mxCell>
        <mxCell id="Rdtr1JbjE306_ljO7pi9-47" style="edgeStyle=orthogonalEdgeStyle;shape=connector;curved=1;rounded=0;orthogonalLoop=1;jettySize=auto;html=1;exitX=0;exitY=0.75;exitDx=0;exitDy=0;entryX=0.5;entryY=0;entryDx=0;entryDy=0;strokeColor=default;align=center;verticalAlign=middle;fontFamily=Helvetica;fontSize=11;fontColor=default;labelBackgroundColor=none;autosize=1;resizable=0;endArrow=classic;" edge="1" parent="zkV6eAk7qHjJs4rU3PGN-4" source="Rdtr1JbjE306_ljO7pi9-38" target="Rdtr1JbjE306_ljO7pi9-40">
          <mxGeometry relative="1" as="geometry" />
        </mxCell>
        <mxCell id="Rdtr1JbjE306_ljO7pi9-48" style="edgeStyle=orthogonalEdgeStyle;shape=connector;rounded=1;orthogonalLoop=1;jettySize=auto;html=1;exitX=0.25;exitY=1;exitDx=0;exitDy=0;entryX=0.5;entryY=0;entryDx=0;entryDy=0;strokeColor=default;align=center;verticalAlign=middle;fontFamily=Helvetica;fontSize=11;fontColor=default;labelBackgroundColor=none;autosize=1;resizable=0;endArrow=classic;curved=0;" edge="1" parent="zkV6eAk7qHjJs4rU3PGN-4" source="Rdtr1JbjE306_ljO7pi9-38" target="Rdtr1JbjE306_ljO7pi9-41">
          <mxGeometry relative="1" as="geometry">
            <Array as="points">
              <mxPoint x="550" y="1330" />
              <mxPoint x="490" y="1330" />
            </Array>
          </mxGeometry>
        </mxCell>
        <mxCell id="Rdtr1JbjE306_ljO7pi9-49" style="edgeStyle=orthogonalEdgeStyle;shape=connector;rounded=1;orthogonalLoop=1;jettySize=auto;html=1;exitX=0.75;exitY=1;exitDx=0;exitDy=0;strokeColor=default;align=center;verticalAlign=middle;fontFamily=Helvetica;fontSize=11;fontColor=default;labelBackgroundColor=none;autosize=1;resizable=0;endArrow=classic;curved=0;" edge="1" parent="zkV6eAk7qHjJs4rU3PGN-4" source="Rdtr1JbjE306_ljO7pi9-38" target="Rdtr1JbjE306_ljO7pi9-42">
          <mxGeometry relative="1" as="geometry">
            <Array as="points">
              <mxPoint x="630" y="1330" />
              <mxPoint x="680" y="1330" />
            </Array>
          </mxGeometry>
        </mxCell>
        <mxCell id="Rdtr1JbjE306_ljO7pi9-38" value="Industrial Switch L3" style="rounded=0;whiteSpace=wrap;html=1;fillColor=#bac8d3;strokeColor=#23445d;" vertex="1" parent="zkV6eAk7qHjJs4rU3PGN-4">
          <mxGeometry x="510" y="1230" width="160" height="70" as="geometry" />
        </mxCell>
        <mxCell id="Rdtr1JbjE306_ljO7pi9-59" style="edgeStyle=orthogonalEdgeStyle;shape=connector;curved=0;rounded=1;orthogonalLoop=1;jettySize=auto;html=1;exitX=0.5;exitY=1;exitDx=0;exitDy=0;entryX=0;entryY=0.25;entryDx=0;entryDy=0;strokeColor=default;align=center;verticalAlign=middle;fontFamily=Helvetica;fontSize=11;fontColor=default;labelBackgroundColor=none;autosize=1;resizable=0;endArrow=classic;" edge="1" parent="zkV6eAk7qHjJs4rU3PGN-4" source="Rdtr1JbjE306_ljO7pi9-40" target="Rdtr1JbjE306_ljO7pi9-53">
          <mxGeometry relative="1" as="geometry" />
        </mxCell>
        <mxCell id="Rdtr1JbjE306_ljO7pi9-68" value="Conduit 6: Manufacturing to Cell" style="edgeLabel;html=1;align=center;verticalAlign=middle;resizable=0;points=[];fontFamily=Helvetica;fontSize=11;fontColor=default;labelBackgroundColor=default;autosize=1;fillColor=none;gradientColor=none;" vertex="1" connectable="0" parent="Rdtr1JbjE306_ljO7pi9-59">
          <mxGeometry x="-0.6106" y="-3" width="180" height="30" relative="1" as="geometry">
            <mxPoint x="-87" y="-6" as="offset" />
          </mxGeometry>
        </mxCell>
        <mxCell id="Rdtr1JbjE306_ljO7pi9-40" value="MES - Manufacturing Execution System" style="rounded=0;whiteSpace=wrap;html=1;fontFamily=Helvetica;fontSize=11;labelBackgroundColor=none;fillColor=#e1d5e7;strokeColor=#9673a6;" vertex="1" parent="zkV6eAk7qHjJs4rU3PGN-4">
          <mxGeometry x="260" y="1400" width="120" height="50" as="geometry" />
        </mxCell>
        <mxCell id="Rdtr1JbjE306_ljO7pi9-41" value="SCADA.HMI Servers" style="rounded=0;whiteSpace=wrap;html=1;fontFamily=Helvetica;fontSize=11;labelBackgroundColor=none;fillColor=#e1d5e7;strokeColor=#9673a6;" vertex="1" parent="zkV6eAk7qHjJs4rU3PGN-4">
          <mxGeometry x="430" y="1400" width="120" height="50" as="geometry" />
        </mxCell>
        <mxCell id="Rdtr1JbjE306_ljO7pi9-42" value="Engineering Workstations" style="rounded=0;whiteSpace=wrap;html=1;fontFamily=Helvetica;fontSize=11;labelBackgroundColor=none;fillColor=#e1d5e7;strokeColor=#9673a6;" vertex="1" parent="zkV6eAk7qHjJs4rU3PGN-4">
          <mxGeometry x="620" y="1400" width="120" height="50" as="geometry" />
        </mxCell>
        <mxCell id="Rdtr1JbjE306_ljO7pi9-44" value="Manufacturing &lt;br&gt;Database" style="shape=cylinder3;whiteSpace=wrap;html=1;boundedLbl=1;backgroundOutline=1;size=6.111145019531477;align=center;verticalAlign=middle;fontFamily=Helvetica;fontSize=11;labelBackgroundColor=none;autosize=1;resizable=1;fillColor=#e1d5e7;strokeColor=#9673a6;" vertex="1" parent="zkV6eAk7qHjJs4rU3PGN-4">
          <mxGeometry x="790" y="1400" width="90" height="50" as="geometry" />
        </mxCell>
        <mxCell id="Rdtr1JbjE306_ljO7pi9-50" style="edgeStyle=orthogonalEdgeStyle;shape=connector;curved=1;rounded=0;orthogonalLoop=1;jettySize=auto;html=1;exitX=1;exitY=0.75;exitDx=0;exitDy=0;entryX=0.5;entryY=0;entryDx=0;entryDy=0;entryPerimeter=0;strokeColor=default;align=center;verticalAlign=middle;fontFamily=Helvetica;fontSize=11;fontColor=default;labelBackgroundColor=none;autosize=1;resizable=0;endArrow=classic;" edge="1" parent="zkV6eAk7qHjJs4rU3PGN-4" source="Rdtr1JbjE306_ljO7pi9-38" target="Rdtr1JbjE306_ljO7pi9-44">
          <mxGeometry relative="1" as="geometry" />
        </mxCell>
        <mxCell id="Rdtr1JbjE306_ljO7pi9-51" value="Manufacturing Zone - Level 3" style="text;html=1;align=center;verticalAlign=middle;resizable=0;points=[];autosize=1;strokeColor=none;fillColor=none;fontFamily=Helvetica;fontSize=11;fontColor=default;labelBackgroundColor=none;" vertex="1" parent="zkV6eAk7qHjJs4rU3PGN-4">
          <mxGeometry x="505" y="1360" width="170" height="30" as="geometry" />
        </mxCell>
        <mxCell id="Rdtr1JbjE306_ljO7pi9-60" style="edgeStyle=orthogonalEdgeStyle;shape=connector;curved=1;rounded=0;orthogonalLoop=1;jettySize=auto;html=1;exitX=0;exitY=0.75;exitDx=0;exitDy=0;entryX=0.5;entryY=0;entryDx=0;entryDy=0;strokeColor=default;align=center;verticalAlign=middle;fontFamily=Helvetica;fontSize=11;fontColor=default;labelBackgroundColor=none;autosize=1;resizable=0;endArrow=classic;" edge="1" parent="zkV6eAk7qHjJs4rU3PGN-4" source="Rdtr1JbjE306_ljO7pi9-53" target="Rdtr1JbjE306_ljO7pi9-54">
          <mxGeometry relative="1" as="geometry" />
        </mxCell>
        <mxCell id="Rdtr1JbjE306_ljO7pi9-61" style="edgeStyle=orthogonalEdgeStyle;shape=connector;curved=1;rounded=0;orthogonalLoop=1;jettySize=auto;html=1;exitX=0.25;exitY=1;exitDx=0;exitDy=0;entryX=0.5;entryY=0;entryDx=0;entryDy=0;strokeColor=default;align=center;verticalAlign=middle;fontFamily=Helvetica;fontSize=11;fontColor=default;labelBackgroundColor=none;autosize=1;resizable=0;endArrow=classic;" edge="1" parent="zkV6eAk7qHjJs4rU3PGN-4" source="Rdtr1JbjE306_ljO7pi9-53" target="Rdtr1JbjE306_ljO7pi9-55">
          <mxGeometry relative="1" as="geometry" />
        </mxCell>
        <mxCell id="Rdtr1JbjE306_ljO7pi9-62" style="edgeStyle=orthogonalEdgeStyle;shape=connector;curved=1;rounded=0;orthogonalLoop=1;jettySize=auto;html=1;exitX=0.75;exitY=1;exitDx=0;exitDy=0;entryX=0.5;entryY=0;entryDx=0;entryDy=0;strokeColor=default;align=center;verticalAlign=middle;fontFamily=Helvetica;fontSize=11;fontColor=default;labelBackgroundColor=none;autosize=1;resizable=0;endArrow=classic;" edge="1" parent="zkV6eAk7qHjJs4rU3PGN-4" source="Rdtr1JbjE306_ljO7pi9-53" target="Rdtr1JbjE306_ljO7pi9-56">
          <mxGeometry relative="1" as="geometry" />
        </mxCell>
        <mxCell id="Rdtr1JbjE306_ljO7pi9-63" style="edgeStyle=orthogonalEdgeStyle;shape=connector;curved=1;rounded=0;orthogonalLoop=1;jettySize=auto;html=1;exitX=1;exitY=0.75;exitDx=0;exitDy=0;strokeColor=default;align=center;verticalAlign=middle;fontFamily=Helvetica;fontSize=11;fontColor=default;labelBackgroundColor=none;autosize=1;resizable=0;endArrow=classic;" edge="1" parent="zkV6eAk7qHjJs4rU3PGN-4" source="Rdtr1JbjE306_ljO7pi9-53" target="Rdtr1JbjE306_ljO7pi9-57">
          <mxGeometry relative="1" as="geometry" />
        </mxCell>
        <mxCell id="Rdtr1JbjE306_ljO7pi9-53" value="Industrial Switch L2" style="rounded=0;whiteSpace=wrap;html=1;fillColor=#bac8d3;strokeColor=#23445d;" vertex="1" parent="zkV6eAk7qHjJs4rU3PGN-4">
          <mxGeometry x="460" y="1550" width="160" height="70" as="geometry" />
        </mxCell>
        <mxCell id="Rdtr1JbjE306_ljO7pi9-81" style="edgeStyle=orthogonalEdgeStyle;shape=connector;curved=1;rounded=0;orthogonalLoop=1;jettySize=auto;html=1;exitX=0.75;exitY=1;exitDx=0;exitDy=0;entryX=0;entryY=0.5;entryDx=0;entryDy=0;strokeColor=default;align=center;verticalAlign=middle;fontFamily=Helvetica;fontSize=11;fontColor=default;labelBackgroundColor=none;autosize=1;resizable=0;endArrow=classic;" edge="1" parent="zkV6eAk7qHjJs4rU3PGN-4" source="Rdtr1JbjE306_ljO7pi9-54" target="Rdtr1JbjE306_ljO7pi9-58">
          <mxGeometry relative="1" as="geometry" />
        </mxCell>
        <mxCell id="Rdtr1JbjE306_ljO7pi9-82" value="&lt;span style=&quot;background-color: rgb(255, 255, 255);&quot;&gt;Conduit 7: Cell to Process&lt;/span&gt;" style="edgeLabel;html=1;align=center;verticalAlign=middle;resizable=0;points=[];fontFamily=Helvetica;fontSize=11;fontColor=default;labelBackgroundColor=none;autosize=1;fillColor=none;gradientColor=none;" vertex="1" connectable="0" parent="Rdtr1JbjE306_ljO7pi9-81">
          <mxGeometry x="-0.5045" y="5" width="150" height="30" relative="1" as="geometry">
            <mxPoint x="-45" y="19" as="offset" />
          </mxGeometry>
        </mxCell>
        <mxCell id="Rdtr1JbjE306_ljO7pi9-85" style="edgeStyle=orthogonalEdgeStyle;shape=connector;curved=1;rounded=0;orthogonalLoop=1;jettySize=auto;html=1;exitX=0.25;exitY=1;exitDx=0;exitDy=0;strokeColor=default;align=center;verticalAlign=middle;fontFamily=Helvetica;fontSize=11;fontColor=default;labelBackgroundColor=none;autosize=1;resizable=0;endArrow=classic;" edge="1" parent="zkV6eAk7qHjJs4rU3PGN-4" source="Rdtr1JbjE306_ljO7pi9-54" target="Rdtr1JbjE306_ljO7pi9-83">
          <mxGeometry relative="1" as="geometry" />
        </mxCell>
        <mxCell id="Rdtr1JbjE306_ljO7pi9-86" value="Dedicated Safety Network" style="edgeLabel;html=1;align=center;verticalAlign=middle;resizable=0;points=[];fontFamily=Helvetica;fontSize=11;fontColor=default;labelBackgroundColor=default;autosize=1;fillColor=none;gradientColor=none;" vertex="1" connectable="0" parent="Rdtr1JbjE306_ljO7pi9-85">
          <mxGeometry x="-0.6343" y="-5" width="150" height="30" relative="1" as="geometry">
            <mxPoint x="-95" y="-4" as="offset" />
          </mxGeometry>
        </mxCell>
        <mxCell id="Rdtr1JbjE306_ljO7pi9-54" value="PLC/Controller 1" style="rounded=0;whiteSpace=wrap;html=1;fontFamily=Helvetica;fontSize=11;labelBackgroundColor=none;fillColor=#d5e8d4;strokeColor=#82b366;" vertex="1" parent="zkV6eAk7qHjJs4rU3PGN-4">
          <mxGeometry x="260" y="1680" width="120" height="50" as="geometry" />
        </mxCell>
        <mxCell id="Rdtr1JbjE306_ljO7pi9-66" style="edgeStyle=orthogonalEdgeStyle;shape=connector;curved=0;rounded=1;orthogonalLoop=1;jettySize=auto;html=1;exitX=0.5;exitY=1;exitDx=0;exitDy=0;strokeColor=default;align=center;verticalAlign=middle;fontFamily=Helvetica;fontSize=11;fontColor=default;labelBackgroundColor=none;autosize=1;resizable=0;endArrow=classic;" edge="1" parent="zkV6eAk7qHjJs4rU3PGN-4" source="Rdtr1JbjE306_ljO7pi9-55" target="Rdtr1JbjE306_ljO7pi9-58">
          <mxGeometry relative="1" as="geometry" />
        </mxCell>
        <mxCell id="Rdtr1JbjE306_ljO7pi9-55" value="PLC/Controller 2" style="rounded=0;whiteSpace=wrap;html=1;fontFamily=Helvetica;fontSize=11;labelBackgroundColor=none;fillColor=#d5e8d4;strokeColor=#82b366;" vertex="1" parent="zkV6eAk7qHjJs4rU3PGN-4">
          <mxGeometry x="420" y="1680" width="120" height="50" as="geometry" />
        </mxCell>
        <mxCell id="Rdtr1JbjE306_ljO7pi9-56" value="Local HMI" style="rounded=0;whiteSpace=wrap;html=1;fontFamily=Helvetica;fontSize=11;labelBackgroundColor=none;fillColor=#d5e8d4;strokeColor=#82b366;" vertex="1" parent="zkV6eAk7qHjJs4rU3PGN-4">
          <mxGeometry x="580" y="1680" width="120" height="50" as="geometry" />
        </mxCell>
        <mxCell id="Rdtr1JbjE306_ljO7pi9-57" value="Variable Frequency Drivers" style="rounded=0;whiteSpace=wrap;html=1;fontFamily=Helvetica;fontSize=11;labelBackgroundColor=none;fillColor=#d5e8d4;strokeColor=#82b366;" vertex="1" parent="zkV6eAk7qHjJs4rU3PGN-4">
          <mxGeometry x="730" y="1680" width="150" height="50" as="geometry" />
        </mxCell>
        <mxCell id="Rdtr1JbjE306_ljO7pi9-77" style="edgeStyle=orthogonalEdgeStyle;shape=connector;curved=0;rounded=1;orthogonalLoop=1;jettySize=auto;html=1;exitX=0.25;exitY=1;exitDx=0;exitDy=0;entryX=0.5;entryY=0;entryDx=0;entryDy=0;strokeColor=default;align=center;verticalAlign=middle;fontFamily=Helvetica;fontSize=11;fontColor=default;labelBackgroundColor=none;autosize=1;resizable=0;endArrow=classic;" edge="1" parent="zkV6eAk7qHjJs4rU3PGN-4" source="Rdtr1JbjE306_ljO7pi9-58" target="Rdtr1JbjE306_ljO7pi9-71">
          <mxGeometry relative="1" as="geometry">
            <Array as="points">
              <mxPoint x="540" y="1950" />
              <mxPoint x="420" y="1950" />
            </Array>
          </mxGeometry>
        </mxCell>
        <mxCell id="Rdtr1JbjE306_ljO7pi9-78" style="edgeStyle=orthogonalEdgeStyle;shape=connector;curved=1;rounded=0;orthogonalLoop=1;jettySize=auto;html=1;exitX=0.5;exitY=1;exitDx=0;exitDy=0;strokeColor=default;align=center;verticalAlign=middle;fontFamily=Helvetica;fontSize=11;fontColor=default;labelBackgroundColor=none;autosize=1;resizable=0;endArrow=classic;" edge="1" parent="zkV6eAk7qHjJs4rU3PGN-4" source="Rdtr1JbjE306_ljO7pi9-58" target="Rdtr1JbjE306_ljO7pi9-72">
          <mxGeometry relative="1" as="geometry" />
        </mxCell>
        <mxCell id="Rdtr1JbjE306_ljO7pi9-79" style="edgeStyle=orthogonalEdgeStyle;shape=connector;curved=0;rounded=1;orthogonalLoop=1;jettySize=auto;html=1;exitX=0.75;exitY=1;exitDx=0;exitDy=0;strokeColor=default;align=center;verticalAlign=middle;fontFamily=Helvetica;fontSize=11;fontColor=default;labelBackgroundColor=none;autosize=1;resizable=0;endArrow=classic;" edge="1" parent="zkV6eAk7qHjJs4rU3PGN-4" source="Rdtr1JbjE306_ljO7pi9-58" target="Rdtr1JbjE306_ljO7pi9-73">
          <mxGeometry relative="1" as="geometry">
            <Array as="points">
              <mxPoint x="620" y="1950" />
              <mxPoint x="750" y="1950" />
            </Array>
          </mxGeometry>
        </mxCell>
        <mxCell id="Rdtr1JbjE306_ljO7pi9-80" style="edgeStyle=orthogonalEdgeStyle;shape=connector;curved=1;rounded=0;orthogonalLoop=1;jettySize=auto;html=1;exitX=1;exitY=0.75;exitDx=0;exitDy=0;strokeColor=default;align=center;verticalAlign=middle;fontFamily=Helvetica;fontSize=11;fontColor=default;labelBackgroundColor=none;autosize=1;resizable=0;endArrow=classic;" edge="1" parent="zkV6eAk7qHjJs4rU3PGN-4" source="Rdtr1JbjE306_ljO7pi9-58" target="Rdtr1JbjE306_ljO7pi9-74">
          <mxGeometry relative="1" as="geometry" />
        </mxCell>
        <mxCell id="Rdtr1JbjE306_ljO7pi9-58" value="Industrial Switch L1/0" style="rounded=0;whiteSpace=wrap;html=1;fillColor=#bac8d3;strokeColor=#23445d;" vertex="1" parent="zkV6eAk7qHjJs4rU3PGN-4">
          <mxGeometry x="500" y="1850" width="160" height="70" as="geometry" />
        </mxCell>
        <mxCell id="Rdtr1JbjE306_ljO7pi9-65" value="Cell/Area Zone - Level 2" style="text;html=1;align=center;verticalAlign=middle;resizable=0;points=[];autosize=1;strokeColor=none;fillColor=none;fontFamily=Helvetica;fontSize=11;fontColor=default;labelBackgroundColor=none;" vertex="1" parent="zkV6eAk7qHjJs4rU3PGN-4">
          <mxGeometry x="655" y="1640" width="140" height="30" as="geometry" />
        </mxCell>
        <mxCell id="Rdtr1JbjE306_ljO7pi9-69" style="edgeStyle=orthogonalEdgeStyle;shape=connector;curved=1;rounded=0;orthogonalLoop=1;jettySize=auto;html=1;exitX=0.75;exitY=1;exitDx=0;exitDy=0;entryX=0.372;entryY=-0.012;entryDx=0;entryDy=0;entryPerimeter=0;strokeColor=default;align=center;verticalAlign=middle;fontFamily=Helvetica;fontSize=11;fontColor=default;labelBackgroundColor=none;autosize=1;resizable=0;endArrow=classic;" edge="1" parent="zkV6eAk7qHjJs4rU3PGN-4" source="Rdtr1JbjE306_ljO7pi9-41" target="Rdtr1JbjE306_ljO7pi9-53">
          <mxGeometry relative="1" as="geometry" />
        </mxCell>
        <mxCell id="Rdtr1JbjE306_ljO7pi9-71" value="Sensors" style="rounded=0;whiteSpace=wrap;html=1;fontFamily=Helvetica;fontSize=11;labelBackgroundColor=none;fillColor=#ffe6cc;strokeColor=#d79b00;" vertex="1" parent="zkV6eAk7qHjJs4rU3PGN-4">
          <mxGeometry x="360" y="2010" width="120" height="50" as="geometry" />
        </mxCell>
        <mxCell id="Rdtr1JbjE306_ljO7pi9-72" value="Actuators" style="rounded=0;whiteSpace=wrap;html=1;fontFamily=Helvetica;fontSize=11;labelBackgroundColor=none;fillColor=#ffe6cc;strokeColor=#d79b00;" vertex="1" parent="zkV6eAk7qHjJs4rU3PGN-4">
          <mxGeometry x="520" y="2010" width="120" height="50" as="geometry" />
        </mxCell>
        <mxCell id="Rdtr1JbjE306_ljO7pi9-73" value="I/O Devices" style="rounded=0;whiteSpace=wrap;html=1;fontFamily=Helvetica;fontSize=11;labelBackgroundColor=none;fillColor=#ffe6cc;strokeColor=#d79b00;" vertex="1" parent="zkV6eAk7qHjJs4rU3PGN-4">
          <mxGeometry x="690" y="2010" width="120" height="50" as="geometry" />
        </mxCell>
        <mxCell id="Rdtr1JbjE306_ljO7pi9-74" value="Field Devices" style="rounded=0;whiteSpace=wrap;html=1;fontFamily=Helvetica;fontSize=11;labelBackgroundColor=none;fillColor=#ffe6cc;strokeColor=#d79b00;" vertex="1" parent="zkV6eAk7qHjJs4rU3PGN-4">
          <mxGeometry x="860" y="2010" width="120" height="50" as="geometry" />
        </mxCell>
        <mxCell id="Rdtr1JbjE306_ljO7pi9-76" value="Process Zone - Level 1 and 0" style="text;html=1;align=center;verticalAlign=middle;resizable=0;points=[];autosize=1;strokeColor=none;fillColor=none;fontFamily=Helvetica;fontSize=11;fontColor=default;labelBackgroundColor=none;" vertex="1" parent="zkV6eAk7qHjJs4rU3PGN-4">
          <mxGeometry x="750" y="1975" width="170" height="30" as="geometry" />
        </mxCell>
        <mxCell id="Rdtr1JbjE306_ljO7pi9-88" style="edgeStyle=orthogonalEdgeStyle;shape=connector;curved=1;rounded=0;orthogonalLoop=1;jettySize=auto;html=1;exitX=0.5;exitY=1;exitDx=0;exitDy=0;entryX=0.5;entryY=0;entryDx=0;entryDy=0;strokeColor=default;align=center;verticalAlign=middle;fontFamily=Helvetica;fontSize=11;fontColor=default;labelBackgroundColor=none;autosize=1;resizable=0;endArrow=classic;" edge="1" parent="zkV6eAk7qHjJs4rU3PGN-4" source="Rdtr1JbjE306_ljO7pi9-83" target="Rdtr1JbjE306_ljO7pi9-84">
          <mxGeometry relative="1" as="geometry" />
        </mxCell>
        <mxCell id="Rdtr1JbjE306_ljO7pi9-83" value="Safety Instrumented System - SIS" style="rounded=0;whiteSpace=wrap;html=1;fontFamily=Helvetica;fontSize=11;labelBackgroundColor=none;fillColor=#f8cecc;strokeColor=#b85450;" vertex="1" parent="zkV6eAk7qHjJs4rU3PGN-4">
          <mxGeometry x="100" y="1940" width="190" height="50" as="geometry" />
        </mxCell>
        <mxCell id="Rdtr1JbjE306_ljO7pi9-84" value="Emergency Stop Systems" style="rounded=0;whiteSpace=wrap;html=1;fontFamily=Helvetica;fontSize=11;labelBackgroundColor=none;fillColor=#f8cecc;strokeColor=#b85450;" vertex="1" parent="zkV6eAk7qHjJs4rU3PGN-4">
          <mxGeometry x="100" y="2020" width="190" height="50" as="geometry" />
        </mxCell>
        <mxCell id="Rdtr1JbjE306_ljO7pi9-89" value="Safety Zone" style="text;html=1;align=center;verticalAlign=middle;resizable=0;points=[];autosize=1;strokeColor=none;fillColor=none;fontFamily=Helvetica;fontSize=11;fontColor=default;labelBackgroundColor=none;" vertex="1" parent="zkV6eAk7qHjJs4rU3PGN-4">
          <mxGeometry x="210" y="1905" width="80" height="30" as="geometry" />
        </mxCell>
        <mxCell id="zkV6eAk7qHjJs4rU3PGN-1" value="Industrial Network Architecture based on the&amp;nbsp; IEC 62443 for&amp;nbsp; System Integration" style="text;html=1;align=center;verticalAlign=middle;resizable=0;points=[];autosize=1;strokeColor=none;fillColor=none;fontFamily=Helvetica;fontSize=22;fontColor=default;labelBackgroundColor=none;fontStyle=1" vertex="1" parent="zkV6eAk7qHjJs4rU3PGN-4">
          <mxGeometry x="150" y="20" width="800" height="40" as="geometry" />
        </mxCell>
        <mxCell id="zkV6eAk7qHjJs4rU3PGN-3" value="" style="endArrow=none;html=1;rounded=0;strokeColor=#414141;align=center;verticalAlign=middle;fontFamily=Helvetica;fontSize=11;fontColor=default;labelBackgroundColor=none;autosize=1;resizable=0;strokeWidth=3;" edge="1" parent="zkV6eAk7qHjJs4rU3PGN-4">
          <mxGeometry width="50" height="50" relative="1" as="geometry">
            <mxPoint x="1010" y="69.09" as="sourcePoint" />
            <mxPoint x="90" y="69.09" as="targetPoint" />
          </mxGeometry>
        </mxCell>
        <mxCell id="Rdtr1JbjE306_ljO7pi9-6" value="&lt;strong&gt;Conduit&lt;/strong&gt; - A logical grouping of communication channels connecting two or more zones" style="text;html=1;align=center;verticalAlign=middle;resizable=0;points=[];autosize=1;strokeColor=none;fillColor=none;" vertex="1" parent="zkV6eAk7qHjJs4rU3PGN-4">
          <mxGeometry x="40" y="110" width="490" height="30" as="geometry" />
        </mxCell>
        <mxCell id="Rdtr1JbjE306_ljO7pi9-91" value="&lt;li class=&quot;whitespace-normal break-words&quot;&gt;&lt;strong&gt;Conduit 1:&lt;/strong&gt; Internet Access&lt;/li&gt;&lt;br&gt;&lt;li class=&quot;whitespace-normal break-words&quot;&gt;&lt;strong&gt;Conduit 2:&lt;/strong&gt; Remote VPN Access&lt;/li&gt;&lt;br&gt;&lt;li class=&quot;whitespace-normal break-words&quot;&gt;&lt;strong&gt;Conduit 3:&lt;/strong&gt; Enterprise Network (internal)&lt;/li&gt;&lt;br&gt;&lt;li class=&quot;whitespace-normal break-words&quot;&gt;&lt;strong&gt;Conduit 4:&lt;/strong&gt; Enterprise Zone → DMZ&lt;/li&gt;&lt;br&gt;&lt;li class=&quot;whitespace-normal break-words&quot;&gt;&lt;strong&gt;Conduit 5:&lt;/strong&gt; DMZ → Manufacturing Zone&lt;/li&gt;&lt;br&gt;&lt;li class=&quot;whitespace-normal break-words&quot;&gt;&lt;strong&gt;Conduit 6:&lt;/strong&gt; Manufacturing → Cell/Area Zone&lt;/li&gt;&lt;br&gt;&lt;li class=&quot;whitespace-normal break-words&quot;&gt;&lt;strong&gt;Conduit 7:&lt;/strong&gt; Cell/Area → Process Zone&lt;/li&gt;" style="text;html=1;align=left;verticalAlign=middle;resizable=0;points=[];autosize=1;strokeColor=none;fillColor=none;fontFamily=Helvetica;fontSize=11;fontColor=default;labelBackgroundColor=none;" vertex="1" parent="zkV6eAk7qHjJs4rU3PGN-4">
          <mxGeometry x="90" y="140" width="260" height="190" as="geometry" />
        </mxCell>
      </root>
    </mxGraphModel>
  </diagram>
  <diagram id="kxZ9g8GACYQy6jaZ0X4K" name="Page-2">
    <mxGraphModel dx="3252" dy="1988" grid="1" gridSize="10" guides="1" tooltips="1" connect="1" arrows="1" fold="1" page="0" pageScale="1" pageWidth="1169" pageHeight="827" math="0" shadow="0">
      <root>
        <mxCell id="0" />
        <mxCell id="1" parent="0" />
        <mxCell id="LVV2pFrSmI7J2tUOa7dm-1" value="&lt;h2 class=&quot;text-xl font-bold text-text-100 mt-1 -mb-0.5&quot;&gt;&lt;strong&gt;🏗️ Architecture Overview&lt;/strong&gt;&lt;/h2&gt;&lt;p class=&quot;whitespace-normal break-words&quot;&gt;The diagram shows a &lt;strong&gt;defense-in-depth&lt;/strong&gt; security architecture with &lt;strong&gt;5 main security zones&lt;/strong&gt; connected through &lt;strong&gt;7 secure conduits&lt;/strong&gt;, following the &lt;strong&gt;Purdue Model&lt;/strong&gt; (Levels 0-5).&lt;/p&gt;" style="text;html=1;align=left;verticalAlign=middle;resizable=0;points=[];autosize=1;strokeColor=none;fillColor=none;fontFamily=Helvetica;fontSize=14;fontColor=default;labelBackgroundColor=none;" vertex="1" parent="1">
          <mxGeometry x="-880" y="-450" width="1090" height="110" as="geometry" />
        </mxCell>
        <mxCell id="LVV2pFrSmI7J2tUOa7dm-2" value="&lt;h2 class=&quot;text-xl font-bold text-text-100 mt-1 -mb-0.5&quot;&gt;&lt;strong&gt;🔒 Security Zones (Top to Bottom)&lt;/strong&gt;&lt;/h2&gt;&lt;h3 class=&quot;text-lg font-bold text-text-100 mt-1 -mb-1.5&quot;&gt;&lt;strong&gt;1. Enterprise Zone - Level 4 and 5&lt;/strong&gt;&lt;/h3&gt;&lt;ul class=&quot;[&amp;amp;:not(:last-child)_ul]:pb-1 [&amp;amp;:not(:last-child)_ol]:pb-1 list-disc space-y-1.5 pl-7&quot;&gt;&lt;li class=&quot;whitespace-normal break-words&quot;&gt;&lt;strong&gt;Purpose:&lt;/strong&gt; Business operations and corporate functions&lt;/li&gt;&lt;br&gt;&lt;li class=&quot;whitespace-normal break-words&quot;&gt;&lt;strong&gt;Components:&lt;/strong&gt; ERP Systems, Business Applications, Email &amp;amp; Office&lt;/li&gt;&lt;br&gt;&lt;li class=&quot;whitespace-normal break-words&quot;&gt;&lt;strong&gt;Security Level:&lt;/strong&gt; Lower trust, internet-connected&lt;/li&gt;&lt;br&gt;&lt;li class=&quot;whitespace-normal break-words&quot;&gt;&lt;strong&gt;Risk:&lt;/strong&gt; Higher exposure to cyber threats&lt;/li&gt;&lt;/ul&gt;&lt;br&gt;&lt;h3 class=&quot;text-lg font-bold text-text-100 mt-1 -mb-1.5&quot;&gt;&lt;strong&gt;2. DMZ - Demilitarized Zone&lt;/strong&gt;&lt;/h3&gt;&lt;ul class=&quot;[&amp;amp;:not(:last-child)_ul]:pb-1 [&amp;amp;:not(:last-child)_ol]:pb-1 list-disc space-y-1.5 pl-7&quot;&gt;&lt;li class=&quot;whitespace-normal break-words&quot;&gt;&lt;strong&gt;Purpose:&lt;/strong&gt; Security buffer between enterprise and manufacturing&lt;/li&gt;&lt;br&gt;&lt;li class=&quot;whitespace-normal break-words&quot;&gt;&lt;strong&gt;Components:&lt;/strong&gt; DMZ Servers, Historians, Application Servers&lt;/li&gt;&lt;br&gt;&lt;li class=&quot;whitespace-normal break-words&quot;&gt;&lt;strong&gt;Security Level:&lt;/strong&gt; Isolated, controlled data exchange&lt;/li&gt;&lt;br&gt;&lt;li class=&quot;whitespace-normal break-words&quot;&gt;&lt;strong&gt;Risk:&lt;/strong&gt; Monitored intermediary zone&lt;/li&gt;&lt;/ul&gt;&lt;br&gt;&lt;h3 class=&quot;text-lg font-bold text-text-100 mt-1 -mb-1.5&quot;&gt;&lt;strong&gt;3. Manufacturing Zone - Level 3&lt;/strong&gt;&lt;/h3&gt;&lt;ul class=&quot;[&amp;amp;:not(:last-child)_ul]:pb-1 [&amp;amp;:not(:last-child)_ol]:pb-1 list-disc space-y-1.5 pl-7&quot;&gt;&lt;li class=&quot;whitespace-normal break-words&quot;&gt;&lt;strong&gt;Purpose:&lt;/strong&gt; Production management and supervision&lt;/li&gt;&lt;br&gt;&lt;li class=&quot;whitespace-normal break-words&quot;&gt;&lt;strong&gt;Components:&lt;/strong&gt; MES, SCADA/HMI Servers, Engineering Workstations, Databases&lt;/li&gt;&lt;br&gt;&lt;li class=&quot;whitespace-normal break-words&quot;&gt;&lt;strong&gt;Security Level:&lt;/strong&gt; Controlled access, monitored&lt;/li&gt;&lt;br&gt;&lt;li class=&quot;whitespace-normal break-words&quot;&gt;&lt;strong&gt;Risk:&lt;/strong&gt; Critical for production operations&lt;/li&gt;&lt;/ul&gt;&lt;br&gt;&lt;h3 class=&quot;text-lg font-bold text-text-100 mt-1 -mb-1.5&quot;&gt;&lt;strong&gt;4. Cell/Area Zone - Level 2&lt;/strong&gt;&lt;/h3&gt;&lt;ul class=&quot;[&amp;amp;:not(:last-child)_ul]:pb-1 [&amp;amp;:not(:last-child)_ol]:pb-1 list-disc space-y-1.5 pl-7&quot;&gt;&lt;li class=&quot;whitespace-normal break-words&quot;&gt;&lt;strong&gt;Purpose:&lt;/strong&gt; Control and automation&lt;/li&gt;&lt;br&gt;&lt;li class=&quot;whitespace-normal break-words&quot;&gt;&lt;strong&gt;Components:&lt;/strong&gt; PLCs, Controllers, Local HMI, Variable Frequency Drives&lt;/li&gt;&lt;br&gt;&lt;li class=&quot;whitespace-normal break-words&quot;&gt;&lt;strong&gt;Security Level:&lt;/strong&gt; High protection, limited access&lt;/li&gt;&lt;br&gt;&lt;li class=&quot;whitespace-normal break-words&quot;&gt;&lt;strong&gt;Risk:&lt;/strong&gt; Direct impact on production processes&lt;/li&gt;&lt;/ul&gt;&lt;br&gt;&lt;h3 class=&quot;text-lg font-bold text-text-100 mt-1 -mb-1.5&quot;&gt;&lt;strong&gt;5. Process Zone - Level 1 and 0&lt;/strong&gt;&lt;/h3&gt;&lt;ul class=&quot;[&amp;amp;:not(:last-child)_ul]:pb-1 [&amp;amp;:not(:last-child)_ol]:pb-1 list-disc space-y-1.5 pl-7&quot;&gt;&lt;li class=&quot;whitespace-normal break-words&quot;&gt;&lt;strong&gt;Purpose:&lt;/strong&gt; Physical process control&lt;/li&gt;&lt;br&gt;&lt;li class=&quot;whitespace-normal break-words&quot;&gt;&lt;strong&gt;Components:&lt;/strong&gt; Sensors, Actuators, I/O Devices, Field Devices&lt;/li&gt;&lt;br&gt;&lt;li class=&quot;whitespace-normal break-words&quot;&gt;&lt;strong&gt;Security Level:&lt;/strong&gt; Maximum isolation, real-time critical&lt;/li&gt;&lt;br&gt;&lt;li class=&quot;whitespace-normal break-words&quot;&gt;&lt;strong&gt;Risk:&lt;/strong&gt; Direct control of physical equipment&lt;/li&gt;&lt;/ul&gt;&lt;br&gt;&lt;h3 class=&quot;text-lg font-bold text-text-100 mt-1 -mb-1.5&quot;&gt;&lt;strong&gt;6. Safety Zone (Isolated)&lt;/strong&gt;&lt;/h3&gt;&lt;ul class=&quot;[&amp;amp;:not(:last-child)_ul]:pb-1 [&amp;amp;:not(:last-child)_ol]:pb-1 list-disc space-y-1.5 pl-7&quot;&gt;&lt;li class=&quot;whitespace-normal break-words&quot;&gt;&lt;strong&gt;Purpose:&lt;/strong&gt; Safety-critical functions&lt;/li&gt;&lt;br&gt;&lt;li class=&quot;whitespace-normal break-words&quot;&gt;&lt;strong&gt;Components:&lt;/strong&gt; Safety Instrumented System (SIS), Emergency Stop Systems&lt;/li&gt;&lt;br&gt;&lt;li class=&quot;whitespace-normal break-words&quot;&gt;&lt;strong&gt;Security Level:&lt;/strong&gt; Completely isolated from other zones&lt;/li&gt;&lt;br&gt;&lt;li class=&quot;whitespace-normal break-words&quot;&gt;&lt;strong&gt;Risk:&lt;/strong&gt; Life-safety critical, must never be compromised&lt;/li&gt;&lt;/ul&gt;" style="text;html=1;align=left;verticalAlign=middle;resizable=0;points=[];autosize=1;strokeColor=none;fillColor=none;fontFamily=Helvetica;fontSize=11;fontColor=default;labelBackgroundColor=none;" vertex="1" parent="1">
          <mxGeometry x="-880" y="-300" width="460" height="990" as="geometry" />
        </mxCell>
        <mxCell id="LVV2pFrSmI7J2tUOa7dm-3" value="&lt;h2 class=&quot;text-xl font-bold text-text-100 mt-1 -mb-0.5&quot;&gt;&lt;strong&gt;🛣️ Conduits (Communication Pathways)&lt;/strong&gt;&lt;/h2&gt;&lt;ol class=&quot;[&amp;amp;:not(:last-child)_ul]:pb-1 [&amp;amp;:not(:last-child)_ol]:pb-1 list-decimal space-y-1.5 pl-7&quot;&gt;&lt;li class=&quot;whitespace-normal break-words&quot;&gt;&lt;strong&gt;Conduit 1:&lt;/strong&gt; Internet → Enterprise (external access)&lt;/li&gt;&lt;br&gt;&lt;li class=&quot;whitespace-normal break-words&quot;&gt;&lt;strong&gt;Conduit 2:&lt;/strong&gt; Remote VPN → Enterprise (secure remote access)&lt;/li&gt;&lt;br&gt;&lt;li class=&quot;whitespace-normal break-words&quot;&gt;&lt;strong&gt;Conduit 3:&lt;/strong&gt; Internal Enterprise Network&lt;/li&gt;&lt;br&gt;&lt;li class=&quot;whitespace-normal break-words&quot;&gt;&lt;strong&gt;Conduit 4:&lt;/strong&gt; Enterprise → DMZ (controlled data exchange)&lt;/li&gt;&lt;br&gt;&lt;li class=&quot;whitespace-normal break-words&quot;&gt;&lt;strong&gt;Conduit 5:&lt;/strong&gt; DMZ → Manufacturing (filtered access)&lt;/li&gt;&lt;br&gt;&lt;li class=&quot;whitespace-normal break-words&quot;&gt;&lt;strong&gt;Conduit 6:&lt;/strong&gt; Manufacturing → Cell/Area (production control)&lt;/li&gt;&lt;br&gt;&lt;li class=&quot;whitespace-normal break-words&quot;&gt;&lt;strong&gt;Conduit 7:&lt;/strong&gt; Cell/Area → Process (field device control)&lt;/li&gt;&lt;/ol&gt;&lt;p class=&quot;whitespace-normal break-words&quot;&gt;&lt;strong&gt;Safety Network:&lt;/strong&gt; Dedicated, isolated connection (not numbered as regular conduit)&lt;/p&gt;" style="text;html=1;align=left;verticalAlign=middle;resizable=0;points=[];autosize=1;strokeColor=none;fillColor=none;fontFamily=Helvetica;fontSize=11;fontColor=default;labelBackgroundColor=none;" vertex="1" parent="1">
          <mxGeometry x="-320" y="-293" width="430" height="270" as="geometry" />
        </mxCell>
        <mxCell id="LVV2pFrSmI7J2tUOa7dm-4" value="&lt;h2 class=&quot;text-xl font-bold text-text-100 mt-1 -mb-0.5&quot;&gt;&lt;strong&gt;🛡️ Security Components&lt;/strong&gt;&lt;/h2&gt;&lt;h3 class=&quot;text-lg font-bold text-text-100 mt-1 -mb-1.5&quot;&gt;&lt;strong&gt;Firewalls (3 layers)&lt;/strong&gt;&lt;/h3&gt;&lt;ul class=&quot;[&amp;amp;:not(:last-child)_ul]:pb-1 [&amp;amp;:not(:last-child)_ol]:pb-1 list-disc space-y-1.5 pl-7&quot;&gt;&lt;li class=&quot;whitespace-normal break-words&quot;&gt;&lt;strong&gt;Enterprise Firewall:&lt;/strong&gt; Protects from internet threats&lt;/li&gt;&lt;br&gt;&lt;li class=&quot;whitespace-normal break-words&quot;&gt;&lt;strong&gt;Industrial Firewall 1:&lt;/strong&gt; Guards DMZ entry&lt;/li&gt;&lt;br&gt;&lt;li class=&quot;whitespace-normal break-words&quot;&gt;&lt;strong&gt;Industrial Firewall 2:&lt;/strong&gt; Protects manufacturing zone&lt;/li&gt;&lt;/ul&gt;&lt;h3 class=&quot;text-lg font-bold text-text-100 mt-1 -mb-1.5&quot;&gt;&lt;strong&gt;IDS/IPS (Intrusion Detection/Prevention)&lt;/strong&gt;&lt;/h3&gt;&lt;ul class=&quot;[&amp;amp;:not(:last-child)_ul]:pb-1 [&amp;amp;:not(:last-child)_ol]:pb-1 list-disc space-y-1.5 pl-7&quot;&gt;&lt;li class=&quot;whitespace-normal break-words&quot;&gt;&lt;strong&gt;IDS 1:&lt;/strong&gt; Monitors DMZ traffic&lt;/li&gt;&lt;br&gt;&lt;li class=&quot;whitespace-normal break-words&quot;&gt;&lt;strong&gt;IDS 2:&lt;/strong&gt; Monitors manufacturing zone traffic&lt;/li&gt;&lt;/ul&gt;&lt;h3 class=&quot;text-lg font-bold text-text-100 mt-1 -mb-1.5&quot;&gt;&lt;strong&gt;Network Switches&lt;/strong&gt;&lt;/h3&gt;&lt;ul class=&quot;[&amp;amp;:not(:last-child)_ul]:pb-1 [&amp;amp;:not(:last-child)_ol]:pb-1 list-disc space-y-1.5 pl-7&quot;&gt;&lt;li class=&quot;whitespace-normal break-words&quot;&gt;&lt;strong&gt;Industrial Switch L3:&lt;/strong&gt; Manufacturing level&lt;/li&gt;&lt;br&gt;&lt;li class=&quot;whitespace-normal break-words&quot;&gt;&lt;strong&gt;Industrial Switch L2:&lt;/strong&gt; Cell/Area level&lt;/li&gt;&lt;br&gt;&lt;li class=&quot;whitespace-normal break-words&quot;&gt;&lt;strong&gt;Industrial Switch L1/0:&lt;/strong&gt; Process level&lt;/li&gt;&lt;/ul&gt;" style="text;html=1;align=left;verticalAlign=middle;resizable=0;points=[];autosize=1;strokeColor=none;fillColor=none;fontFamily=Helvetica;fontSize=11;fontColor=default;labelBackgroundColor=none;" vertex="1" parent="1">
          <mxGeometry x="-320" y="10" width="310" height="360" as="geometry" />
        </mxCell>
        <mxCell id="LVV2pFrSmI7J2tUOa7dm-5" value="&lt;h2 class=&quot;text-xl font-bold text-text-100 mt-1 -mb-0.5&quot;&gt;&lt;strong&gt;📊 Key IEC 62443 Principles Demonstrated&lt;/strong&gt;&lt;/h2&gt;&lt;h3 class=&quot;text-lg font-bold text-text-100 mt-1 -mb-1.5&quot;&gt;&lt;strong&gt;1. Defense in Depth&lt;/strong&gt;&lt;/h3&gt;&lt;p class=&quot;whitespace-normal break-words&quot;&gt;Multiple security layers prevent single point of failure&lt;/p&gt;&lt;h3 class=&quot;text-lg font-bold text-text-100 mt-1 -mb-1.5&quot;&gt;&lt;strong&gt;2. Zone Segmentation&lt;/strong&gt;&lt;/h3&gt;&lt;p class=&quot;whitespace-normal break-words&quot;&gt;Each zone has defined boundaries and security requirements&lt;/p&gt;&lt;h3 class=&quot;text-lg font-bold text-text-100 mt-1 -mb-1.5&quot;&gt;&lt;strong&gt;3. Conduit Protection&lt;/strong&gt;&lt;/h3&gt;&lt;p class=&quot;whitespace-normal break-words&quot;&gt;All inter-zone communication is controlled and monitored&lt;/p&gt;&lt;h3 class=&quot;text-lg font-bold text-text-100 mt-1 -mb-1.5&quot;&gt;&lt;strong&gt;4. Least Privilege&lt;/strong&gt;&lt;/h3&gt;&lt;p class=&quot;whitespace-normal break-words&quot;&gt;Access restricted to minimum necessary between zones&lt;/p&gt;&lt;h3 class=&quot;text-lg font-bold text-text-100 mt-1 -mb-1.5&quot;&gt;&lt;strong&gt;5. Network Segregation&lt;/strong&gt;&lt;/h3&gt;&lt;p class=&quot;whitespace-normal break-words&quot;&gt;Physical/logical separation reduces attack surface&lt;/p&gt;&lt;h3 class=&quot;text-lg font-bold text-text-100 mt-1 -mb-1.5&quot;&gt;&lt;strong&gt;6. Safety Isolation&lt;/strong&gt;&lt;/h3&gt;&lt;p class=&quot;whitespace-normal break-words&quot;&gt;Safety systems are completely separated from operational networks&lt;/p&gt;" style="text;html=1;align=left;verticalAlign=middle;resizable=0;points=[];autosize=1;strokeColor=none;fillColor=none;fontFamily=Helvetica;fontSize=11;fontColor=default;labelBackgroundColor=none;" vertex="1" parent="1">
          <mxGeometry x="-320" y="400" width="410" height="390" as="geometry" />
        </mxCell>
        <mxCell id="LVV2pFrSmI7J2tUOa7dm-6" value="&lt;h2 class=&quot;text-xl font-bold text-text-100 mt-1 -mb-0.5&quot;&gt;&lt;strong&gt;✅ Security Benefits&lt;/strong&gt;&lt;/h2&gt;&lt;ul class=&quot;[&amp;amp;:not(:last-child)_ul]:pb-1 [&amp;amp;:not(:last-child)_ol]:pb-1 list-disc space-y-1.5 pl-7&quot;&gt;&lt;li class=&quot;whitespace-normal break-words&quot;&gt;&lt;strong&gt;Prevents lateral movement&lt;/strong&gt; of threats between zones&lt;/li&gt;&lt;br&gt;&lt;li class=&quot;whitespace-normal break-words&quot;&gt;&lt;strong&gt;Contains breaches&lt;/strong&gt; within isolated zones&lt;/li&gt;&lt;br&gt;&lt;li class=&quot;whitespace-normal break-words&quot;&gt;&lt;strong&gt;Protects critical assets&lt;/strong&gt; in lower levels&lt;/li&gt;&lt;br&gt;&lt;li class=&quot;whitespace-normal break-words&quot;&gt;&lt;strong&gt;Maintains safety integrity&lt;/strong&gt; through isolation&lt;/li&gt;&lt;br&gt;&lt;li class=&quot;whitespace-normal break-words&quot;&gt;&lt;strong&gt;Enables monitoring&lt;/strong&gt; at each boundary&lt;/li&gt;&lt;br&gt;&lt;li class=&quot;whitespace-normal break-words&quot;&gt;&lt;strong&gt;Supports compliance&lt;/strong&gt; with IEC 62443 standards&lt;/li&gt;&lt;/ul&gt;" style="text;html=1;align=left;verticalAlign=middle;resizable=0;points=[];autosize=1;strokeColor=none;fillColor=none;fontFamily=Helvetica;fontSize=11;fontColor=default;labelBackgroundColor=none;" vertex="1" parent="1">
          <mxGeometry x="245" y="-270" width="330" height="220" as="geometry" />
        </mxCell>
        <mxCell id="LVV2pFrSmI7J2tUOa7dm-8" value="&lt;h2 class=&quot;text-xl font-bold text-text-100 mt-1 -mb-0.5&quot;&gt;&lt;strong&gt;🎯 Use Case&lt;/strong&gt;&lt;/h2&gt;&lt;p class=&quot;whitespace-normal break-words&quot;&gt;This architecture is suitable for:&lt;/p&gt;&lt;ul class=&quot;[&amp;amp;:not(:last-child)_ul]:pb-1 [&amp;amp;:not(:last-child)_ol]:pb-1 list-disc space-y-1.5 pl-7&quot;&gt;&lt;li class=&quot;whitespace-normal break-words&quot;&gt;Manufacturing plants&lt;/li&gt;&lt;br&gt;&lt;li class=&quot;whitespace-normal break-words&quot;&gt;Process industries (oil &amp;amp; gas, chemicals)&lt;/li&gt;&lt;br&gt;&lt;li class=&quot;whitespace-normal break-words&quot;&gt;Power generation facilities&lt;/li&gt;&lt;br&gt;&lt;li class=&quot;whitespace-normal break-words&quot;&gt;Water treatment plants&lt;/li&gt;&lt;br&gt;&lt;li class=&quot;whitespace-normal break-words&quot;&gt;Any industrial facility requiring IEC 62443 compliance&lt;/li&gt;&lt;/ul&gt;" style="text;html=1;align=left;verticalAlign=middle;resizable=0;points=[];autosize=1;strokeColor=none;fillColor=none;fontFamily=Helvetica;fontSize=11;fontColor=default;labelBackgroundColor=none;" vertex="1" parent="1">
          <mxGeometry x="245" y="-23" width="320" height="220" as="geometry" />
        </mxCell>
      </root>
    </mxGraphModel>
  </diagram>
  <diagram id="6F7xxpEd_SvUU-Ci9f0K" name="Page-3">
    <mxGraphModel dx="2560" dy="1651" grid="1" gridSize="10" guides="1" tooltips="1" connect="1" arrows="1" fold="1" page="0" pageScale="1" pageWidth="1169" pageHeight="827" math="0" shadow="0">
      <root>
        <mxCell id="0" />
        <mxCell id="1" parent="0" />
        <mxCell id="dU6gmNu1RMLLlD9pIeHS-1" value="Internet" style="ellipse;whiteSpace=wrap;html=1;fillColor=#E3F2FD;strokeColor=#1565C0;strokeWidth=2;fontSize=14;fontStyle=1" vertex="1" parent="1">
          <mxGeometry x="-320" y="-320" width="120" height="60" as="geometry" />
        </mxCell>
        <mxCell id="dU6gmNu1RMLLlD9pIeHS-2" value="Remote Access&#xa;VPN" style="ellipse;whiteSpace=wrap;html=1;fillColor=#E3F2FD;strokeColor=#1565C0;strokeWidth=2;fontSize=14;fontStyle=1" vertex="1" parent="1">
          <mxGeometry x="-40" y="-320" width="120" height="60" as="geometry" />
        </mxCell>
        <mxCell id="dU6gmNu1RMLLlD9pIeHS-3" value="Enterprise Firewall" style="shape=hexagon;perimeter=hexagonPerimeter2;whiteSpace=wrap;html=1;fillColor=#FFCDD2;strokeColor=#C62828;strokeWidth=3;fontSize=14;fontStyle=1" vertex="1" parent="1">
          <mxGeometry x="-200" y="-220" width="160" height="70" as="geometry" />
        </mxCell>
        <mxCell id="dU6gmNu1RMLLlD9pIeHS-4" value="" style="endArrow=classic;html=1;strokeWidth=2;strokeColor=#1565C0;" edge="1" parent="1" source="dU6gmNu1RMLLlD9pIeHS-1" target="dU6gmNu1RMLLlD9pIeHS-3">
          <mxGeometry width="50" height="50" relative="1" as="geometry" />
        </mxCell>
        <mxCell id="dU6gmNu1RMLLlD9pIeHS-5" value="" style="endArrow=classic;html=1;strokeWidth=2;strokeColor=#1565C0;" edge="1" parent="1" source="dU6gmNu1RMLLlD9pIeHS-2" target="dU6gmNu1RMLLlD9pIeHS-3">
          <mxGeometry width="50" height="50" relative="1" as="geometry" />
        </mxCell>
        <mxCell id="dU6gmNu1RMLLlD9pIeHS-6" value="Enterprise Zone - Level 4-5&#xa;────────────────────&#xa;Business Data&#xa;• ERP Systems&#xa;• Business Applications&#xa;• Email &amp; Office" style="rounded=1;whiteSpace=wrap;html=1;fillColor=#C8E6C9;strokeColor=#2E7D32;strokeWidth=2;fontSize=13;align=left;spacingLeft=10;verticalAlign=top;" vertex="1" parent="1">
          <mxGeometry x="-240" y="-110" width="240" height="110" as="geometry" />
        </mxCell>
        <mxCell id="dU6gmNu1RMLLlD9pIeHS-7" value="Conduit 1" style="text;html=1;strokeColor=none;fillColor=none;align=center;verticalAlign=middle;whiteSpace=wrap;rounded=0;fontSize=12;fontStyle=1;fontColor=#C62828;" vertex="1" parent="1">
          <mxGeometry x="-100" y="-145" width="80" height="20" as="geometry" />
        </mxCell>
        <mxCell id="dU6gmNu1RMLLlD9pIeHS-8" value="Industrial Firewall 1&#xa;+ IDS/IPS" style="shape=hexagon;perimeter=hexagonPerimeter2;whiteSpace=wrap;html=1;fillColor=#FFCDD2;strokeColor=#C62828;strokeWidth=3;fontSize=14;fontStyle=1" vertex="1" parent="1">
          <mxGeometry x="-240" y="40" width="240" height="100" as="geometry" />
        </mxCell>
        <mxCell id="dU6gmNu1RMLLlD9pIeHS-9" value="" style="endArrow=classic;html=1;strokeWidth=2;strokeColor=#2E7D32;" edge="1" parent="1" source="dU6gmNu1RMLLlD9pIeHS-6" target="dU6gmNu1RMLLlD9pIeHS-8">
          <mxGeometry width="50" height="50" relative="1" as="geometry" />
        </mxCell>
        <mxCell id="dU6gmNu1RMLLlD9pIeHS-10" value="Conduit 2" style="text;html=1;strokeColor=none;fillColor=none;align=center;verticalAlign=middle;whiteSpace=wrap;rounded=0;fontSize=12;fontStyle=1;fontColor=#C62828;" vertex="1" parent="1">
          <mxGeometry x="-100" y="15" width="80" height="20" as="geometry" />
        </mxCell>
        <mxCell id="dU6gmNu1RMLLlD9pIeHS-11" value="DMZ - Demilitarized Zone&#xa;────────────────────&#xa;Data Exchange Buffer&#xa;• Historians&#xa;• Application Servers&#xa;• Data Replication" style="rounded=1;whiteSpace=wrap;html=1;fillColor=#FFF9C4;strokeColor=#F57F17;strokeWidth=2;fontSize=13;align=left;spacingLeft=10;verticalAlign=top;" vertex="1" parent="1">
          <mxGeometry x="-240" y="190" width="240" height="110" as="geometry" />
        </mxCell>
        <mxCell id="dU6gmNu1RMLLlD9pIeHS-12" value="" style="endArrow=classic;html=1;strokeWidth=2;strokeColor=#C62828;" edge="1" parent="1" source="dU6gmNu1RMLLlD9pIeHS-8" target="dU6gmNu1RMLLlD9pIeHS-11">
          <mxGeometry width="50" height="50" relative="1" as="geometry" />
        </mxCell>
        <mxCell id="dU6gmNu1RMLLlD9pIeHS-13" value="Industrial Firewall 2&#xa;+ IDS/IPS" style="shape=hexagon;perimeter=hexagonPerimeter2;whiteSpace=wrap;html=1;fillColor=#FFCDD2;strokeColor=#C62828;strokeWidth=3;fontSize=14;fontStyle=1" vertex="1" parent="1">
          <mxGeometry x="-240" y="340" width="240" height="100" as="geometry" />
        </mxCell>
        <mxCell id="dU6gmNu1RMLLlD9pIeHS-14" value="" style="endArrow=classic;html=1;strokeWidth=2;strokeColor=#F57F17;" edge="1" parent="1" source="dU6gmNu1RMLLlD9pIeHS-11" target="dU6gmNu1RMLLlD9pIeHS-13">
          <mxGeometry width="50" height="50" relative="1" as="geometry" />
        </mxCell>
        <mxCell id="dU6gmNu1RMLLlD9pIeHS-15" value="Conduit 3" style="text;html=1;strokeColor=none;fillColor=none;align=center;verticalAlign=middle;whiteSpace=wrap;rounded=0;fontSize=12;fontStyle=1;fontColor=#C62828;" vertex="1" parent="1">
          <mxGeometry x="-100" y="315" width="80" height="20" as="geometry" />
        </mxCell>
        <mxCell id="dU6gmNu1RMLLlD9pIeHS-16" value="Manufacturing Zone - Level 3&#xa;────────────────────&#xa;Production Management&#xa;• MES&#xa;• SCADA/HMI Servers&#xa;• Engineering Workstations" style="rounded=1;whiteSpace=wrap;html=1;fillColor=#C8E6C9;strokeColor=#2E7D32;strokeWidth=2;fontSize=13;align=left;spacingLeft=10;verticalAlign=top;" vertex="1" parent="1">
          <mxGeometry x="-240" y="510" width="240" height="110" as="geometry" />
        </mxCell>
        <mxCell id="dU6gmNu1RMLLlD9pIeHS-17" value="" style="endArrow=classic;html=1;strokeWidth=2;strokeColor=#C62828;exitX=0.5;exitY=1;exitDx=0;exitDy=0;" edge="1" parent="1" source="dU6gmNu1RMLLlD9pIeHS-13" target="dU6gmNu1RMLLlD9pIeHS-16">
          <mxGeometry width="50" height="50" relative="1" as="geometry">
            <mxPoint x="-120" y="470" as="sourcePoint" />
          </mxGeometry>
        </mxCell>
        <mxCell id="dU6gmNu1RMLLlD9pIeHS-18" value="Industrial Switch&#xa;Layer 3" style="shape=hexagon;perimeter=hexagonPerimeter2;whiteSpace=wrap;html=1;fillColor=#FFE0B2;strokeColor=#E65100;strokeWidth=2;fontSize=14;fontStyle=1" vertex="1" parent="1">
          <mxGeometry x="-200" y="660" width="160" height="70" as="geometry" />
        </mxCell>
        <mxCell id="dU6gmNu1RMLLlD9pIeHS-19" value="" style="endArrow=classic;html=1;strokeWidth=2;strokeColor=#2E7D32;" edge="1" parent="1" source="dU6gmNu1RMLLlD9pIeHS-16" target="dU6gmNu1RMLLlD9pIeHS-18">
          <mxGeometry width="50" height="50" relative="1" as="geometry" />
        </mxCell>
        <mxCell id="dU6gmNu1RMLLlD9pIeHS-20" value="Conduit 4" style="text;html=1;strokeColor=none;fillColor=none;align=center;verticalAlign=middle;whiteSpace=wrap;rounded=0;fontSize=12;fontStyle=1;fontColor=#E65100;" vertex="1" parent="1">
          <mxGeometry x="-100" y="635" width="80" height="20" as="geometry" />
        </mxCell>
        <mxCell id="dU6gmNu1RMLLlD9pIeHS-21" value="Cell/Area Zone - Level 2&#xa;────────────────────&#xa;Control Systems&#xa;• PLCs/Controllers&#xa;• Local HMI&#xa;• Variable Frequency Drives" style="rounded=1;whiteSpace=wrap;html=1;fillColor=#C8E6C9;strokeColor=#2E7D32;strokeWidth=2;fontSize=13;align=left;spacingLeft=10;verticalAlign=top;" vertex="1" parent="1">
          <mxGeometry x="-240" y="770" width="240" height="110" as="geometry" />
        </mxCell>
        <mxCell id="dU6gmNu1RMLLlD9pIeHS-22" value="" style="endArrow=classic;html=1;strokeWidth=2;strokeColor=#E65100;" edge="1" parent="1" source="dU6gmNu1RMLLlD9pIeHS-18" target="dU6gmNu1RMLLlD9pIeHS-21">
          <mxGeometry width="50" height="50" relative="1" as="geometry" />
        </mxCell>
        <mxCell id="dU6gmNu1RMLLlD9pIeHS-23" value="Industrial Switch&#xa;Layer 2" style="shape=hexagon;perimeter=hexagonPerimeter2;whiteSpace=wrap;html=1;fillColor=#FFE0B2;strokeColor=#E65100;strokeWidth=2;fontSize=14;fontStyle=1" vertex="1" parent="1">
          <mxGeometry x="-200" y="920" width="160" height="70" as="geometry" />
        </mxCell>
        <mxCell id="dU6gmNu1RMLLlD9pIeHS-24" value="" style="endArrow=classic;html=1;strokeWidth=2;strokeColor=#2E7D32;" edge="1" parent="1" source="dU6gmNu1RMLLlD9pIeHS-21" target="dU6gmNu1RMLLlD9pIeHS-23">
          <mxGeometry width="50" height="50" relative="1" as="geometry" />
        </mxCell>
        <mxCell id="dU6gmNu1RMLLlD9pIeHS-25" value="Conduit 5" style="text;html=1;strokeColor=none;fillColor=none;align=center;verticalAlign=middle;whiteSpace=wrap;rounded=0;fontSize=12;fontStyle=1;fontColor=#E65100;" vertex="1" parent="1">
          <mxGeometry x="-100" y="895" width="80" height="20" as="geometry" />
        </mxCell>
        <mxCell id="dU6gmNu1RMLLlD9pIeHS-26" value="Process Zone - Level 1-0&#xa;────────────────────&#xa;Field Devices&#xa;• Sensors&#xa;• Actuators&#xa;• I/O Devices" style="rounded=1;whiteSpace=wrap;html=1;fillColor=#C8E6C9;strokeColor=#2E7D32;strokeWidth=2;fontSize=13;align=left;spacingLeft=10;verticalAlign=top;" vertex="1" parent="1">
          <mxGeometry x="-240" y="1030" width="240" height="110" as="geometry" />
        </mxCell>
        <mxCell id="dU6gmNu1RMLLlD9pIeHS-27" value="" style="endArrow=classic;html=1;strokeWidth=2;strokeColor=#E65100;" edge="1" parent="1" source="dU6gmNu1RMLLlD9pIeHS-23" target="dU6gmNu1RMLLlD9pIeHS-26">
          <mxGeometry width="50" height="50" relative="1" as="geometry" />
        </mxCell>
        <mxCell id="dU6gmNu1RMLLlD9pIeHS-28" value="Safety Zone&#xa;────────────────────&#xa;ISOLATED NETWORK&#xa;• Safety Instrumented System&#xa;• Emergency Stop Systems&#xa;• Safety PLCs" style="rounded=1;whiteSpace=wrap;html=1;fillColor=#FF8A80;strokeColor=#B71C1C;strokeWidth=2;fontSize=13;align=left;spacingLeft=10;verticalAlign=top;dashed=1;" vertex="1" parent="1">
          <mxGeometry x="170" y="770" width="240" height="110" as="geometry" />
        </mxCell>
        <mxCell id="dU6gmNu1RMLLlD9pIeHS-29" value="Dedicated&#xa;Safety Network&#xa;One-way only" style="endArrow=classic;html=1;strokeWidth=2;strokeColor=#B71C1C;dashed=1;dashPattern=5 5;fontSize=11;fontColor=#B71C1C;fontStyle=1;labelBackgroundColor=default;" edge="1" parent="1" source="dU6gmNu1RMLLlD9pIeHS-21" target="dU6gmNu1RMLLlD9pIeHS-28">
          <mxGeometry x="0.0588" y="5" width="50" height="50" relative="1" as="geometry">
            <mxPoint as="offset" />
          </mxGeometry>
        </mxCell>
        <mxCell id="dU6gmNu1RMLLlD9pIeHS-30" value="" style="endArrow=classic;html=1;strokeWidth=2;strokeColor=#C62828;" edge="1" parent="1">
          <mxGeometry width="50" height="50" relative="1" as="geometry">
            <mxPoint x="-120.25" y="-150" as="sourcePoint" />
            <mxPoint x="-120.25" y="-110" as="targetPoint" />
          </mxGeometry>
        </mxCell>
      </root>
    </mxGraphModel>
  </diagram>
  <diagram id="ucYv7thamRdDCoMQFykq" name="Page-4">
    <mxGraphModel dx="2560" dy="1651" grid="1" gridSize="10" guides="1" tooltips="1" connect="1" arrows="1" fold="1" page="0" pageScale="1" pageWidth="1169" pageHeight="827" math="0" shadow="0">
      <root>
        <mxCell id="0" />
        <mxCell id="1" parent="0" />
        <mxCell id="iQwWJ7ngPgPBP5qRovZA-1" value="Enterprise Zone - Level 4 and 5" style="swimlane;whiteSpace=wrap;html=1;fillColor=#E1F5FF;strokeColor=#01579B;strokeWidth=2;fontStyle=1;fontSize=14;" vertex="1" parent="1">
          <mxGeometry x="-290" y="-330" width="360" height="160" as="geometry" />
        </mxCell>
        <mxCell id="iQwWJ7ngPgPBP5qRovZA-2" value="ERP Systems" style="rounded=1;whiteSpace=wrap;html=1;fillColor=#E1F5FF;strokeColor=#01579B;" vertex="1" parent="iQwWJ7ngPgPBP5qRovZA-1">
          <mxGeometry x="20" y="40" width="100" height="50" as="geometry" />
        </mxCell>
        <mxCell id="iQwWJ7ngPgPBP5qRovZA-3" value="Business Applications" style="rounded=1;whiteSpace=wrap;html=1;fillColor=#E1F5FF;strokeColor=#01579B;" vertex="1" parent="iQwWJ7ngPgPBP5qRovZA-1">
          <mxGeometry x="130" y="40" width="100" height="50" as="geometry" />
        </mxCell>
        <mxCell id="iQwWJ7ngPgPBP5qRovZA-4" value="Email &amp; Office" style="rounded=1;whiteSpace=wrap;html=1;fillColor=#E1F5FF;strokeColor=#01579B;" vertex="1" parent="iQwWJ7ngPgPBP5qRovZA-1">
          <mxGeometry x="240" y="40" width="100" height="50" as="geometry" />
        </mxCell>
        <mxCell id="iQwWJ7ngPgPBP5qRovZA-5" value="DMZ - Demilitarized Zone" style="swimlane;whiteSpace=wrap;html=1;fillColor=#FFF9C4;strokeColor=#F57F17;strokeWidth=2;fontStyle=1;fontSize=14;" vertex="1" parent="1">
          <mxGeometry x="-290" y="-130" width="360" height="160" as="geometry" />
        </mxCell>
        <mxCell id="iQwWJ7ngPgPBP5qRovZA-6" value="DMZ Servers" style="rounded=1;whiteSpace=wrap;html=1;fillColor=#FFF9C4;strokeColor=#F57F17;" vertex="1" parent="iQwWJ7ngPgPBP5qRovZA-5">
          <mxGeometry x="20" y="40" width="100" height="50" as="geometry" />
        </mxCell>
        <mxCell id="iQwWJ7ngPgPBP5qRovZA-7" value="Historian" style="rounded=1;whiteSpace=wrap;html=1;fillColor=#FFF9C4;strokeColor=#F57F17;" vertex="1" parent="iQwWJ7ngPgPBP5qRovZA-5">
          <mxGeometry x="130" y="40" width="100" height="50" as="geometry" />
        </mxCell>
        <mxCell id="iQwWJ7ngPgPBP5qRovZA-8" value="Application Servers" style="rounded=1;whiteSpace=wrap;html=1;fillColor=#FFF9C4;strokeColor=#F57F17;" vertex="1" parent="iQwWJ7ngPgPBP5qRovZA-5">
          <mxGeometry x="240" y="40" width="100" height="50" as="geometry" />
        </mxCell>
        <mxCell id="iQwWJ7ngPgPBP5qRovZA-9" value="Manufacturing Zone - Level 3" style="swimlane;whiteSpace=wrap;html=1;fillColor=#F3E5F5;strokeColor=#4A148C;strokeWidth=2;fontStyle=1;fontSize=14;" vertex="1" parent="1">
          <mxGeometry x="-290" y="70" width="360" height="180" as="geometry" />
        </mxCell>
        <mxCell id="iQwWJ7ngPgPBP5qRovZA-10" value="MES&#xa;Manufacturing Execution System" style="rounded=1;whiteSpace=wrap;html=1;fillColor=#F3E5F5;strokeColor=#4A148C;" vertex="1" parent="iQwWJ7ngPgPBP5qRovZA-9">
          <mxGeometry x="20" y="40" width="100" height="60" as="geometry" />
        </mxCell>
        <mxCell id="iQwWJ7ngPgPBP5qRovZA-11" value="SCADA/HMI Servers" style="rounded=1;whiteSpace=wrap;html=1;fillColor=#F3E5F5;strokeColor=#4A148C;" vertex="1" parent="iQwWJ7ngPgPBP5qRovZA-9">
          <mxGeometry x="130" y="40" width="100" height="60" as="geometry" />
        </mxCell>
        <mxCell id="iQwWJ7ngPgPBP5qRovZA-12" value="Engineering Workstations" style="rounded=1;whiteSpace=wrap;html=1;fillColor=#F3E5F5;strokeColor=#4A148C;" vertex="1" parent="iQwWJ7ngPgPBP5qRovZA-9">
          <mxGeometry x="240" y="40" width="100" height="60" as="geometry" />
        </mxCell>
        <mxCell id="iQwWJ7ngPgPBP5qRovZA-13" value="Manufacturing Database" style="shape=cylinder3;whiteSpace=wrap;html=1;boundedLbl=1;backgroundOutline=1;size=15;fillColor=#F3E5F5;strokeColor=#4A148C;" vertex="1" parent="iQwWJ7ngPgPBP5qRovZA-9">
          <mxGeometry x="130" y="110" width="100" height="60" as="geometry" />
        </mxCell>
        <mxCell id="iQwWJ7ngPgPBP5qRovZA-14" value="Cell/Area Zone - Level 2" style="swimlane;whiteSpace=wrap;html=1;fillColor=#E8F5E9;strokeColor=#1B5E20;strokeWidth=2;fontStyle=1;fontSize=14;" vertex="1" parent="1">
          <mxGeometry x="790" y="870" width="360" height="180" as="geometry" />
        </mxCell>
        <mxCell id="iQwWJ7ngPgPBP5qRovZA-15" value="PLC/Controller 1" style="rounded=1;whiteSpace=wrap;html=1;fillColor=#E8F5E9;strokeColor=#1B5E20;" vertex="1" parent="iQwWJ7ngPgPBP5qRovZA-14">
          <mxGeometry x="20" y="40" width="100" height="50" as="geometry" />
        </mxCell>
        <mxCell id="iQwWJ7ngPgPBP5qRovZA-16" value="PLC/Controller 2" style="rounded=1;whiteSpace=wrap;html=1;fillColor=#E8F5E9;strokeColor=#1B5E20;" vertex="1" parent="iQwWJ7ngPgPBP5qRovZA-14">
          <mxGeometry x="130" y="40" width="100" height="50" as="geometry" />
        </mxCell>
        <mxCell id="iQwWJ7ngPgPBP5qRovZA-17" value="Local HMI" style="rounded=1;whiteSpace=wrap;html=1;fillColor=#E8F5E9;strokeColor=#1B5E20;" vertex="1" parent="iQwWJ7ngPgPBP5qRovZA-14">
          <mxGeometry x="240" y="40" width="100" height="50" as="geometry" />
        </mxCell>
        <mxCell id="iQwWJ7ngPgPBP5qRovZA-18" value="Variable Frequency Drives" style="rounded=1;whiteSpace=wrap;html=1;fillColor=#E8F5E9;strokeColor=#1B5E20;" vertex="1" parent="iQwWJ7ngPgPBP5qRovZA-14">
          <mxGeometry x="130" y="110" width="100" height="50" as="geometry" />
        </mxCell>
        <mxCell id="iQwWJ7ngPgPBP5qRovZA-19" value="Process Zone - Level 1 and 0" style="swimlane;whiteSpace=wrap;html=1;fillColor=#FFE0B2;strokeColor=#E65100;strokeWidth=2;fontStyle=1;fontSize=14;" vertex="1" parent="1">
          <mxGeometry x="340" y="1435" width="360" height="160" as="geometry" />
        </mxCell>
        <mxCell id="iQwWJ7ngPgPBP5qRovZA-20" value="Sensors" style="rounded=1;whiteSpace=wrap;html=1;fillColor=#FFE0B2;strokeColor=#E65100;" vertex="1" parent="iQwWJ7ngPgPBP5qRovZA-19">
          <mxGeometry x="20" y="40" width="80" height="50" as="geometry" />
        </mxCell>
        <mxCell id="iQwWJ7ngPgPBP5qRovZA-21" value="Actuators" style="rounded=1;whiteSpace=wrap;html=1;fillColor=#FFE0B2;strokeColor=#E65100;" vertex="1" parent="iQwWJ7ngPgPBP5qRovZA-19">
          <mxGeometry x="110" y="40" width="80" height="50" as="geometry" />
        </mxCell>
        <mxCell id="iQwWJ7ngPgPBP5qRovZA-22" value="I/O Devices" style="rounded=1;whiteSpace=wrap;html=1;fillColor=#FFE0B2;strokeColor=#E65100;" vertex="1" parent="iQwWJ7ngPgPBP5qRovZA-19">
          <mxGeometry x="200" y="40" width="80" height="50" as="geometry" />
        </mxCell>
        <mxCell id="iQwWJ7ngPgPBP5qRovZA-23" value="Field Devices" style="rounded=1;whiteSpace=wrap;html=1;fillColor=#FFE0B2;strokeColor=#E65100;" vertex="1" parent="iQwWJ7ngPgPBP5qRovZA-19">
          <mxGeometry x="260" y="100" width="80" height="50" as="geometry" />
        </mxCell>
        <mxCell id="iQwWJ7ngPgPBP5qRovZA-24" value="Safety Zone" style="swimlane;whiteSpace=wrap;html=1;fillColor=#FFCDD2;strokeColor=#B71C1C;strokeWidth=3;fontStyle=1;fontSize=14;" vertex="1" parent="1">
          <mxGeometry x="60" y="1095" width="280" height="160" as="geometry" />
        </mxCell>
        <mxCell id="iQwWJ7ngPgPBP5qRovZA-25" value="Safety Instrumented System - SIS" style="rounded=1;whiteSpace=wrap;html=1;fillColor=#FFCDD2;strokeColor=#B71C1C;" vertex="1" parent="iQwWJ7ngPgPBP5qRovZA-24">
          <mxGeometry x="20" y="40" width="120" height="50" as="geometry" />
        </mxCell>
        <mxCell id="iQwWJ7ngPgPBP5qRovZA-26" value="Emergency Stop Systems" style="rounded=1;whiteSpace=wrap;html=1;fillColor=#FFCDD2;strokeColor=#B71C1C;" vertex="1" parent="iQwWJ7ngPgPBP5qRovZA-24">
          <mxGeometry x="150" y="40" width="110" height="50" as="geometry" />
        </mxCell>
        <mxCell id="iQwWJ7ngPgPBP5qRovZA-27" value="Enterprise Firewall" style="shape=hexagon;perimeter=hexagonPerimeter2;whiteSpace=wrap;html=1;fillColor=#FF6B6B;strokeColor=#C92A2A;strokeWidth=2;fontStyle=1;" vertex="1" parent="1">
          <mxGeometry x="120" y="-280" width="120" height="60" as="geometry" />
        </mxCell>
        <mxCell id="iQwWJ7ngPgPBP5qRovZA-28" value="Industrial Firewall 1" style="shape=hexagon;perimeter=hexagonPerimeter2;whiteSpace=wrap;html=1;fillColor=#FF6B6B;strokeColor=#C92A2A;strokeWidth=2;fontStyle=1;" vertex="1" parent="1">
          <mxGeometry x="120" y="-80" width="120" height="60" as="geometry" />
        </mxCell>
        <mxCell id="iQwWJ7ngPgPBP5qRovZA-29" value="Industrial Firewall 2" style="shape=hexagon;perimeter=hexagonPerimeter2;whiteSpace=wrap;html=1;fillColor=#FF6B6B;strokeColor=#C92A2A;strokeWidth=2;fontStyle=1;" vertex="1" parent="1">
          <mxGeometry x="120" y="120" width="120" height="60" as="geometry" />
        </mxCell>
        <mxCell id="iQwWJ7ngPgPBP5qRovZA-30" value="IDS/IPS" style="rounded=1;whiteSpace=wrap;html=1;fillColor=#FF6B6B;strokeColor=#C92A2A;strokeWidth=2;fontStyle=1;" vertex="1" parent="1">
          <mxGeometry x="280" y="-75" width="80" height="50" as="geometry" />
        </mxCell>
        <mxCell id="iQwWJ7ngPgPBP5qRovZA-31" value="IDS/IPS" style="rounded=1;whiteSpace=wrap;html=1;fillColor=#FF6B6B;strokeColor=#C92A2A;strokeWidth=2;fontStyle=1;" vertex="1" parent="1">
          <mxGeometry x="280" y="125" width="80" height="50" as="geometry" />
        </mxCell>
        <mxCell id="iQwWJ7ngPgPBP5qRovZA-32" value="Industrial Switch L3" style="rounded=0;whiteSpace=wrap;html=1;fillColor=#B0BEC5;strokeColor=#37474F;strokeWidth=2;" vertex="1" parent="1">
          <mxGeometry x="450" y="125" width="100" height="50" as="geometry" />
        </mxCell>
        <mxCell id="iQwWJ7ngPgPBP5qRovZA-33" value="Industrial Switch L2" style="rounded=0;whiteSpace=wrap;html=1;fillColor=#B0BEC5;strokeColor=#37474F;strokeWidth=2;" vertex="1" parent="1">
          <mxGeometry x="920" y="490" width="100" height="50" as="geometry" />
        </mxCell>
        <mxCell id="iQwWJ7ngPgPBP5qRovZA-34" value="Industrial Switch L1/0" style="rounded=0;whiteSpace=wrap;html=1;fillColor=#B0BEC5;strokeColor=#37474F;strokeWidth=2;" vertex="1" parent="1">
          <mxGeometry x="450" y="1060" width="100" height="50" as="geometry" />
        </mxCell>
        <mxCell id="iQwWJ7ngPgPBP5qRovZA-35" value="Internet" style="ellipse;shape=cloud;whiteSpace=wrap;html=1;fillColor=#BBDEFB;strokeColor=#1976D2;" vertex="1" parent="1">
          <mxGeometry x="430" y="-320" width="120" height="80" as="geometry" />
        </mxCell>
        <mxCell id="iQwWJ7ngPgPBP5qRovZA-36" value="Remote Access VPN" style="ellipse;shape=cloud;whiteSpace=wrap;html=1;fillColor=#C5E1A5;strokeColor=#558B2F;" vertex="1" parent="1">
          <mxGeometry x="430" y="-220" width="120" height="80" as="geometry" />
        </mxCell>
        <mxCell id="iQwWJ7ngPgPBP5qRovZA-37" value="Conduit 1: Internet Access" style="edgeStyle=orthogonalEdgeStyle;rounded=0;orthogonalLoop=1;jettySize=auto;html=1;strokeWidth=2;strokeColor=#1976D2;" edge="1" parent="1" source="iQwWJ7ngPgPBP5qRovZA-35" target="iQwWJ7ngPgPBP5qRovZA-27">
          <mxGeometry relative="1" as="geometry" />
        </mxCell>
        <mxCell id="iQwWJ7ngPgPBP5qRovZA-38" value="Conduit 2: Remote VPN" style="edgeStyle=orthogonalEdgeStyle;rounded=0;orthogonalLoop=1;jettySize=auto;html=1;strokeWidth=2;strokeColor=#558B2F;" edge="1" parent="1" source="iQwWJ7ngPgPBP5qRovZA-36" target="iQwWJ7ngPgPBP5qRovZA-27">
          <mxGeometry relative="1" as="geometry" />
        </mxCell>
        <mxCell id="iQwWJ7ngPgPBP5qRovZA-39" value="Conduit 3: Enterprise Network" style="edgeStyle=orthogonalEdgeStyle;rounded=0;orthogonalLoop=1;jettySize=auto;html=1;strokeWidth=2;" edge="1" parent="1" source="iQwWJ7ngPgPBP5qRovZA-27" target="iQwWJ7ngPgPBP5qRovZA-2">
          <mxGeometry relative="1" as="geometry" />
        </mxCell>
        <mxCell id="iQwWJ7ngPgPBP5qRovZA-40" value="" style="edgeStyle=orthogonalEdgeStyle;rounded=0;orthogonalLoop=1;jettySize=auto;html=1;strokeWidth=2;" edge="1" parent="1" source="iQwWJ7ngPgPBP5qRovZA-27" target="iQwWJ7ngPgPBP5qRovZA-3">
          <mxGeometry relative="1" as="geometry" />
        </mxCell>
        <mxCell id="iQwWJ7ngPgPBP5qRovZA-41" value="" style="edgeStyle=orthogonalEdgeStyle;rounded=0;orthogonalLoop=1;jettySize=auto;html=1;strokeWidth=2;" edge="1" parent="1" source="iQwWJ7ngPgPBP5qRovZA-27" target="iQwWJ7ngPgPBP5qRovZA-4">
          <mxGeometry relative="1" as="geometry" />
        </mxCell>
        <mxCell id="iQwWJ7ngPgPBP5qRovZA-42" value="Conduit 4: Enterprise to DMZ" style="edgeStyle=orthogonalEdgeStyle;rounded=0;orthogonalLoop=1;jettySize=auto;html=1;strokeWidth=2;" edge="1" parent="1" source="iQwWJ7ngPgPBP5qRovZA-2" target="iQwWJ7ngPgPBP5qRovZA-28">
          <mxGeometry relative="1" as="geometry" />
        </mxCell>
        <mxCell id="iQwWJ7ngPgPBP5qRovZA-43" value="" style="edgeStyle=orthogonalEdgeStyle;rounded=0;orthogonalLoop=1;jettySize=auto;html=1;strokeWidth=2;" edge="1" parent="1" source="iQwWJ7ngPgPBP5qRovZA-3" target="iQwWJ7ngPgPBP5qRovZA-28">
          <mxGeometry relative="1" as="geometry" />
        </mxCell>
        <mxCell id="iQwWJ7ngPgPBP5qRovZA-44" value="" style="edgeStyle=orthogonalEdgeStyle;rounded=0;orthogonalLoop=1;jettySize=auto;html=1;strokeWidth=2;" edge="1" parent="1" source="iQwWJ7ngPgPBP5qRovZA-28" target="iQwWJ7ngPgPBP5qRovZA-30">
          <mxGeometry relative="1" as="geometry" />
        </mxCell>
        <mxCell id="iQwWJ7ngPgPBP5qRovZA-45" value="" style="edgeStyle=orthogonalEdgeStyle;rounded=0;orthogonalLoop=1;jettySize=auto;html=1;strokeWidth=2;" edge="1" parent="1" source="iQwWJ7ngPgPBP5qRovZA-30" target="iQwWJ7ngPgPBP5qRovZA-6">
          <mxGeometry relative="1" as="geometry" />
        </mxCell>
        <mxCell id="iQwWJ7ngPgPBP5qRovZA-46" value="" style="edgeStyle=orthogonalEdgeStyle;rounded=0;orthogonalLoop=1;jettySize=auto;html=1;strokeWidth=1;" edge="1" parent="1" source="iQwWJ7ngPgPBP5qRovZA-6" target="iQwWJ7ngPgPBP5qRovZA-7">
          <mxGeometry relative="1" as="geometry" />
        </mxCell>
        <mxCell id="iQwWJ7ngPgPBP5qRovZA-47" value="" style="edgeStyle=orthogonalEdgeStyle;rounded=0;orthogonalLoop=1;jettySize=auto;html=1;strokeWidth=1;" edge="1" parent="1" source="iQwWJ7ngPgPBP5qRovZA-6" target="iQwWJ7ngPgPBP5qRovZA-8">
          <mxGeometry relative="1" as="geometry" />
        </mxCell>
        <mxCell id="iQwWJ7ngPgPBP5qRovZA-48" value="Conduit 5: DMZ to Manufacturing" style="edgeStyle=orthogonalEdgeStyle;rounded=0;orthogonalLoop=1;jettySize=auto;html=1;strokeWidth=2;" edge="1" parent="1" source="iQwWJ7ngPgPBP5qRovZA-7" target="iQwWJ7ngPgPBP5qRovZA-29">
          <mxGeometry relative="1" as="geometry" />
        </mxCell>
        <mxCell id="iQwWJ7ngPgPBP5qRovZA-49" value="" style="edgeStyle=orthogonalEdgeStyle;rounded=0;orthogonalLoop=1;jettySize=auto;html=1;strokeWidth=2;" edge="1" parent="1" source="iQwWJ7ngPgPBP5qRovZA-8" target="iQwWJ7ngPgPBP5qRovZA-29">
          <mxGeometry relative="1" as="geometry" />
        </mxCell>
        <mxCell id="iQwWJ7ngPgPBP5qRovZA-50" value="" style="edgeStyle=orthogonalEdgeStyle;rounded=0;orthogonalLoop=1;jettySize=auto;html=1;strokeWidth=2;" edge="1" parent="1" source="iQwWJ7ngPgPBP5qRovZA-29" target="iQwWJ7ngPgPBP5qRovZA-31">
          <mxGeometry relative="1" as="geometry" />
        </mxCell>
        <mxCell id="iQwWJ7ngPgPBP5qRovZA-51" value="" style="edgeStyle=orthogonalEdgeStyle;rounded=0;orthogonalLoop=1;jettySize=auto;html=1;strokeWidth=2;" edge="1" parent="1" source="iQwWJ7ngPgPBP5qRovZA-31" target="iQwWJ7ngPgPBP5qRovZA-32">
          <mxGeometry relative="1" as="geometry" />
        </mxCell>
        <mxCell id="iQwWJ7ngPgPBP5qRovZA-52" value="" style="edgeStyle=orthogonalEdgeStyle;rounded=0;orthogonalLoop=1;jettySize=auto;html=1;strokeWidth=2;" edge="1" parent="1" source="iQwWJ7ngPgPBP5qRovZA-32" target="iQwWJ7ngPgPBP5qRovZA-10">
          <mxGeometry relative="1" as="geometry" />
        </mxCell>
        <mxCell id="iQwWJ7ngPgPBP5qRovZA-53" value="" style="edgeStyle=orthogonalEdgeStyle;rounded=0;orthogonalLoop=1;jettySize=auto;html=1;strokeWidth=2;" edge="1" parent="1" source="iQwWJ7ngPgPBP5qRovZA-32" target="iQwWJ7ngPgPBP5qRovZA-11">
          <mxGeometry relative="1" as="geometry" />
        </mxCell>
        <mxCell id="iQwWJ7ngPgPBP5qRovZA-54" value="" style="edgeStyle=orthogonalEdgeStyle;rounded=0;orthogonalLoop=1;jettySize=auto;html=1;strokeWidth=2;" edge="1" parent="1" source="iQwWJ7ngPgPBP5qRovZA-32" target="iQwWJ7ngPgPBP5qRovZA-12">
          <mxGeometry relative="1" as="geometry" />
        </mxCell>
        <mxCell id="iQwWJ7ngPgPBP5qRovZA-55" value="" style="edgeStyle=orthogonalEdgeStyle;rounded=0;orthogonalLoop=1;jettySize=auto;html=1;strokeWidth=2;" edge="1" parent="1" source="iQwWJ7ngPgPBP5qRovZA-32" target="iQwWJ7ngPgPBP5qRovZA-13">
          <mxGeometry relative="1" as="geometry" />
        </mxCell>
        <mxCell id="iQwWJ7ngPgPBP5qRovZA-56" value="Conduit 6: Manufacturing to Cell" style="edgeStyle=orthogonalEdgeStyle;rounded=0;orthogonalLoop=1;jettySize=auto;html=1;strokeWidth=2;" edge="1" parent="1" source="iQwWJ7ngPgPBP5qRovZA-10" target="iQwWJ7ngPgPBP5qRovZA-33">
          <mxGeometry relative="1" as="geometry" />
        </mxCell>
        <mxCell id="iQwWJ7ngPgPBP5qRovZA-57" value="" style="edgeStyle=orthogonalEdgeStyle;rounded=0;orthogonalLoop=1;jettySize=auto;html=1;strokeWidth=2;" edge="1" parent="1" source="iQwWJ7ngPgPBP5qRovZA-11" target="iQwWJ7ngPgPBP5qRovZA-33">
          <mxGeometry relative="1" as="geometry" />
        </mxCell>
        <mxCell id="iQwWJ7ngPgPBP5qRovZA-58" value="" style="edgeStyle=orthogonalEdgeStyle;rounded=0;orthogonalLoop=1;jettySize=auto;html=1;strokeWidth=2;" edge="1" parent="1" source="iQwWJ7ngPgPBP5qRovZA-33" target="iQwWJ7ngPgPBP5qRovZA-15">
          <mxGeometry relative="1" as="geometry" />
        </mxCell>
        <mxCell id="iQwWJ7ngPgPBP5qRovZA-59" value="" style="edgeStyle=orthogonalEdgeStyle;rounded=0;orthogonalLoop=1;jettySize=auto;html=1;strokeWidth=2;" edge="1" parent="1" source="iQwWJ7ngPgPBP5qRovZA-33" target="iQwWJ7ngPgPBP5qRovZA-16">
          <mxGeometry relative="1" as="geometry" />
        </mxCell>
        <mxCell id="iQwWJ7ngPgPBP5qRovZA-60" value="" style="edgeStyle=orthogonalEdgeStyle;rounded=0;orthogonalLoop=1;jettySize=auto;html=1;strokeWidth=2;" edge="1" parent="1" source="iQwWJ7ngPgPBP5qRovZA-33" target="iQwWJ7ngPgPBP5qRovZA-17">
          <mxGeometry relative="1" as="geometry" />
        </mxCell>
        <mxCell id="iQwWJ7ngPgPBP5qRovZA-61" value="" style="edgeStyle=orthogonalEdgeStyle;rounded=0;orthogonalLoop=1;jettySize=auto;html=1;strokeWidth=2;" edge="1" parent="1" source="iQwWJ7ngPgPBP5qRovZA-33" target="iQwWJ7ngPgPBP5qRovZA-18">
          <mxGeometry relative="1" as="geometry" />
        </mxCell>
        <mxCell id="iQwWJ7ngPgPBP5qRovZA-62" value="Conduit 7: Cell to Process" style="edgeStyle=orthogonalEdgeStyle;rounded=0;orthogonalLoop=1;jettySize=auto;html=1;strokeWidth=2;" edge="1" parent="1" source="iQwWJ7ngPgPBP5qRovZA-15" target="iQwWJ7ngPgPBP5qRovZA-34">
          <mxGeometry relative="1" as="geometry" />
        </mxCell>
        <mxCell id="iQwWJ7ngPgPBP5qRovZA-63" value="" style="edgeStyle=orthogonalEdgeStyle;rounded=0;orthogonalLoop=1;jettySize=auto;html=1;strokeWidth=2;" edge="1" parent="1" source="iQwWJ7ngPgPBP5qRovZA-16" target="iQwWJ7ngPgPBP5qRovZA-34">
          <mxGeometry relative="1" as="geometry" />
        </mxCell>
        <mxCell id="iQwWJ7ngPgPBP5qRovZA-64" value="" style="edgeStyle=orthogonalEdgeStyle;rounded=0;orthogonalLoop=1;jettySize=auto;html=1;strokeWidth=2;" edge="1" parent="1" source="iQwWJ7ngPgPBP5qRovZA-34" target="iQwWJ7ngPgPBP5qRovZA-20">
          <mxGeometry relative="1" as="geometry" />
        </mxCell>
        <mxCell id="iQwWJ7ngPgPBP5qRovZA-65" value="" style="edgeStyle=orthogonalEdgeStyle;rounded=0;orthogonalLoop=1;jettySize=auto;html=1;strokeWidth=2;" edge="1" parent="1" source="iQwWJ7ngPgPBP5qRovZA-34" target="iQwWJ7ngPgPBP5qRovZA-21">
          <mxGeometry relative="1" as="geometry" />
        </mxCell>
        <mxCell id="iQwWJ7ngPgPBP5qRovZA-66" value="" style="edgeStyle=orthogonalEdgeStyle;rounded=0;orthogonalLoop=1;jettySize=auto;html=1;strokeWidth=2;" edge="1" parent="1" source="iQwWJ7ngPgPBP5qRovZA-34" target="iQwWJ7ngPgPBP5qRovZA-22">
          <mxGeometry relative="1" as="geometry" />
        </mxCell>
        <mxCell id="iQwWJ7ngPgPBP5qRovZA-67" value="" style="edgeStyle=orthogonalEdgeStyle;rounded=0;orthogonalLoop=1;jettySize=auto;html=1;strokeWidth=2;" edge="1" parent="1" source="iQwWJ7ngPgPBP5qRovZA-34" target="iQwWJ7ngPgPBP5qRovZA-23">
          <mxGeometry relative="1" as="geometry" />
        </mxCell>
        <mxCell id="iQwWJ7ngPgPBP5qRovZA-68" value="Dedicated Safety Network" style="edgeStyle=orthogonalEdgeStyle;rounded=0;orthogonalLoop=1;jettySize=auto;html=1;strokeWidth=2;dashed=1;dashPattern=5 5;strokeColor=#B71C1C;" edge="1" parent="1" source="iQwWJ7ngPgPBP5qRovZA-15" target="iQwWJ7ngPgPBP5qRovZA-25">
          <mxGeometry relative="1" as="geometry" />
        </mxCell>
        <mxCell id="iQwWJ7ngPgPBP5qRovZA-69" value="" style="edgeStyle=orthogonalEdgeStyle;rounded=0;orthogonalLoop=1;jettySize=auto;html=1;strokeWidth=2;dashed=1;dashPattern=5 5;strokeColor=#B71C1C;" edge="1" parent="1" source="iQwWJ7ngPgPBP5qRovZA-25" target="iQwWJ7ngPgPBP5qRovZA-26">
          <mxGeometry relative="1" as="geometry" />
        </mxCell>
      </root>
    </mxGraphModel>
  </diagram>
</mxfile>
